<svg width="432" height="429" viewBox="0 0 432 429" fill="none" xmlns="http://www.w3.org/2000/svg">
<g clip-path="url(#clip0)">
<path d="M83.1279 45.7211L96.3407 36.0657L98.8816 39.567L90.0545 46.026L99.1001 58.3952L94.7094 61.612L83.1279 45.7211Z" fill="#B5B5B5"/>
<path d="M121.267 38.6166C121.892 39.6584 122.98 43.3224 116.475 47.2202L115.637 47.7283C109.427 51.4533 105.849 48.9734 104.04 45.9599L103.852 45.6448C102.155 42.8091 101.413 38.3879 107.374 34.8154L108.39 34.2158C114.829 30.3587 118.132 33.2451 120.236 36.7567L120.48 37.1632L109.035 44.0237C110.082 45.3653 111.719 45.9853 114.417 44.3693C116.958 42.8447 116.699 41.6454 116.689 41.3761L121.267 38.6166ZM107.633 41.6149L114.295 37.6206C113.736 36.6906 112.496 35.6488 109.666 37.3462C107.374 38.7183 107.069 40.1666 107.633 41.6149V41.6149Z" fill="#B5B5B5"/>
<path d="M131.192 38.8811L126.395 41.0968L120.246 27.7824L124.921 25.6227L128.646 33.6824L131.355 22.6549L136.152 20.4392L142.301 33.7536L137.621 35.9133L133.901 27.8536L131.192 38.8811ZM127.127 22.9344C123.31 24.6978 121.44 22.4262 120.866 21.171L120.831 21.0998L124.357 19.4686C124.534 19.7933 124.828 20.0386 125.18 20.1548C125.531 20.271 125.913 20.2494 126.249 20.0944C126.585 19.9393 126.849 19.6625 126.989 19.3199C127.128 18.9772 127.132 18.5944 127 18.2489L130.476 16.6431L130.511 16.7142C131.086 17.9643 131.324 20.9982 127.843 22.604L127.127 22.9344Z" fill="#B5B5B5"/>
<path d="M150.254 30.7908L145.727 32.2442L141.239 18.2793L148.161 16.0535L155.174 23.6305L156.464 13.3906L163.137 11.2461L167.619 25.2109L162.715 26.7914L159.666 17.3799L158.335 28.1889L154.584 29.3882L147.231 21.3792L150.254 30.7908Z" fill="#B5B5B5"/>
<path d="M176.294 23.5034L171.1 24.5197L168.346 10.1128L173.428 9.14722L175.094 17.8676L180.364 7.80054L185.553 6.78418L188.307 21.1861L183.225 22.1567L181.558 13.4363L176.294 23.5034Z" fill="#B5B5B5"/>
<path d="M206.297 19.997L206.602 24.5706L201.459 24.9111L201.159 20.3375L200.392 20.3883C192.261 20.9269 190.98 16.1907 190.802 13.5532L190.777 13.1314C190.604 10.5499 191.219 5.50869 199.34 4.96494L200.132 4.91412L199.828 0.340481L204.97 0L205.275 4.57364L206.063 4.52282C214.194 3.98415 215.464 8.90335 215.637 11.4849L215.662 11.9067C215.84 14.5442 215.21 19.4075 207.064 19.9462L206.297 19.997ZM200.91 16.6226L200.371 8.5527L199.863 8.58828C196.621 8.80172 195.94 10.9412 196.067 12.8672C196.194 14.7932 197.155 16.8716 200.397 16.6582L200.91 16.6226ZM205.514 8.21222L206.053 16.2822L206.561 16.2466C209.803 16.0331 210.479 13.7921 210.352 11.9169C210.225 10.0417 209.27 7.96322 206.027 8.18173L205.514 8.21222Z" fill="#B5B5B5"/>
<path d="M224.419 19.438L219.139 19.1483L219.937 4.50757L225.084 4.78707L224.627 13.6498L232.179 5.16821L237.459 5.45787L236.661 20.1037L231.518 19.8242L231.996 10.9564L224.419 19.438Z" fill="#B5B5B5"/>
<path d="M246.636 14.6611L245.584 21.3742L240.502 20.5764L242.774 6.08301L247.855 6.88085L246.946 12.6792L253.044 7.69394L258.918 8.61376L251.845 14.1682L257.297 23.2088L251.24 22.2584L246.636 14.6611Z" fill="#B5B5B5"/>
<path d="M263.655 25.155L263.248 25.0788C259.284 24.0625 258.197 21.486 258.806 19.128V19.0264C259.437 16.5718 261.388 15.4691 266.307 16.2923L270.281 16.9631C271.094 17.0902 271.44 16.9072 271.592 16.3178C271.765 15.652 271.745 14.8847 268.98 14.1732C266.368 13.4973 265.85 14.4578 265.713 14.9965L260.595 13.6752V13.6244C260.961 12.2167 262.374 9.05075 269.356 10.8599L270.154 11.0631C277.187 12.8774 276.877 15.8807 276.39 17.7762L275.185 22.4566C274.957 23.351 275.043 23.7575 276.039 24.0167L276.578 24.1539L275.597 27.9653L271.531 26.9489C270.96 26.8174 270.456 26.4834 270.112 26.0088C269.768 25.5342 269.608 24.951 269.661 24.3674C268.904 24.901 266.978 26.0139 263.655 25.155ZM270.53 20.5052L270.815 19.4024C269.715 19.4444 268.614 19.3985 267.522 19.2652C265.011 19.0569 264.158 19.189 263.904 20.1901V20.2409C263.67 21.1353 264.142 21.9637 265.88 22.4109C268.782 23.1477 270.256 21.5622 270.53 20.5052Z" fill="#B5B5B5"/>
<path d="M295.208 38.5354L290.634 36.8076L291.737 33.8907L277.985 28.7021L283.159 14.9812L287.981 16.8005L284.19 26.8625L290.421 29.2103L294.212 19.1483L299.034 20.9625L295.243 31.0296L297.713 31.9596L295.208 38.5354Z" fill="#B5B5B5"/>
<path d="M303.334 39.1351L298.628 36.7365L305.285 23.666L309.859 26.0037L305.829 33.9161L316.17 29.2204L320.881 31.6191L314.224 44.6895L309.65 42.3519L313.685 34.4395L303.334 39.1351Z" fill="#B5B5B5"/>
<path d="M327.645 47.3371L321.374 49.1106L316.506 45.9142L323.504 43.9526C321.654 42.1435 321.232 40.1311 322.447 38.2762L322.624 38.0069C324.083 35.7759 327.01 35.2576 330.085 37.27L340.192 43.8764L332.163 56.149L327.854 53.3286L330.542 49.2174L327.645 47.3371ZM329.404 40.8781C328.453 40.2581 327.513 39.9583 326.863 40.934L326.802 41.0204C326.182 41.9707 326.802 42.7939 327.762 43.4139L332.336 46.4224L333.987 43.8814L329.404 40.8781Z" fill="#B5B5B5"/>
<path d="M358.181 70.378C356.713 72.0449 353.1 74.1233 347.83 69.4582L346.859 68.5994C341.366 63.7564 343.48 59.2793 345.335 57.2009L345.579 56.9214C347.413 54.8429 351.545 52.1089 357.079 56.9874L357.988 57.7904C363.299 62.4758 361.8 66.2973 360.402 67.8829L356.337 64.3256C356.555 63.9546 357.384 62.2573 355.107 60.2601L354.909 60.0873C352.627 58.0546 350.711 59.1726 349.542 60.499C348.338 61.866 347.56 64.0562 349.796 66.0432L349.995 66.216C352.297 68.2487 353.943 67.0545 354.172 66.7953L358.181 70.378Z" fill="#B5B5B5"/>
<path d="M371.959 86.889C371.059 87.7123 367.695 89.5112 362.563 83.9314L361.902 83.2098C357.003 77.879 358.706 73.8745 361.292 71.5216L361.562 71.2726C363.996 69.0366 368.168 67.4155 372.879 72.5329L373.666 73.3917C378.748 78.9156 376.583 82.7321 373.57 85.5017L373.219 85.8269L364.189 75.9987C363.086 77.2996 362.807 79.0478 364.936 81.3448C366.969 83.5401 368.061 83.0268 368.325 82.9659L371.959 86.889ZM366.267 74.1387L371.522 79.8558C372.32 79.124 373.092 77.696 370.856 75.2821C369.052 73.3002 367.573 73.2952 366.267 74.1387Z" fill="#B5B5B5"/>
<path d="M382.407 83.7434L385.456 87.8495L383.931 88.9624C384.856 89.0641 387.194 89.74 389.171 92.4181L389.374 92.6925C392.697 97.2051 390.695 100.945 387.885 103.014L387.524 103.283C384.953 105.179 380.41 106.21 377.086 101.718L376.867 101.423C374.875 98.7195 375.043 96.3412 375.175 95.4773L369.585 99.5885L366.536 95.4367L382.407 83.7434ZM384.526 98.8567C385.801 97.9166 387.067 96.0516 385.171 93.4599L385.014 93.2464C383.179 90.7563 380.948 91.1781 379.602 92.1792L379.535 92.225C378.24 93.1854 377.116 95.2232 378.951 97.7133L379.109 97.9268C381.019 100.524 383.245 99.802 384.46 98.9076L384.526 98.8567Z" fill="#B5B5B5"/>
<path d="M383.388 110.184L396.057 102.8L401.886 112.801C403.573 115.698 403.608 118.122 401.601 119.296L401.489 119.362C399.914 120.277 398.389 119.819 397.246 118.437C397.973 120.094 397.688 122.126 395.859 123.194L395.767 123.244C393.465 124.586 391.331 123.814 389.481 120.643L383.388 110.184ZM391.01 117.416C391.702 118.605 392.474 119.037 393.368 118.518L393.546 118.412C394.349 117.949 394.532 117.106 393.77 115.805L391.285 111.536L388.52 113.147L391.01 117.416ZM395.97 114.28C396.595 115.352 397.327 115.662 398.125 115.195L398.242 115.129C398.969 114.702 399.111 113.945 398.46 112.827L396.077 108.761L393.587 110.215L395.97 114.28Z" fill="#B5B5B5"/>
<path d="M395.777 132.93L393.617 128.108L407.003 122.111L409.096 126.817L400.996 130.445L411.993 133.281L414.153 138.104L400.777 144.095L398.674 139.42L406.774 135.791L395.777 132.93Z" fill="#B5B5B5"/>
<path d="M413.055 162.669C410.946 163.355 406.794 163.314 404.614 156.601L404.213 155.372C401.956 148.409 406.052 145.635 408.695 144.776L409.046 144.664C411.683 143.805 416.633 143.561 418.909 150.574L419.285 151.728C421.471 158.466 418.233 160.987 416.236 161.643L414.575 156.515C414.951 156.312 416.531 155.27 415.591 152.378L415.51 152.129C414.575 149.238 412.369 149.207 410.682 149.751C408.949 150.31 407.16 151.809 408.08 154.65L408.161 154.904C409.106 157.816 411.134 157.633 411.459 157.526L413.055 162.669Z" fill="#B5B5B5"/>
<path d="M409.665 175.668C408.049 167.939 412.506 165.764 415.118 165.215L415.479 165.139C418.066 164.595 423.178 164.768 424.789 172.472L424.972 173.326C426.639 181.294 421.923 183.251 419.412 183.779L419.001 183.865C416.414 184.409 411.51 184.465 409.853 176.471L409.665 175.668ZM413.558 175.425C414.224 178.606 416.668 178.926 418.244 178.596C419.819 178.265 421.877 177 421.211 173.819L421.15 173.534C420.459 170.226 418.147 170.007 416.516 170.348C414.884 170.688 412.806 171.827 413.497 175.14L413.558 175.425Z" fill="#B5B5B5"/>
<path d="M412.502 188.358L427.097 186.894L428.251 198.41C428.586 201.748 427.61 203.969 425.298 204.203H425.166C423.352 204.386 422.157 203.334 421.695 201.601C421.659 203.41 420.562 205.158 418.458 205.351H418.351C415.698 205.621 414.077 204.03 413.711 200.371L412.502 188.358ZM416.456 198.105C416.593 199.472 417.116 200.188 418.138 200.087H418.351C419.271 199.995 419.784 199.304 419.637 197.805L419.129 192.891L415.947 193.211L416.456 198.105ZM422.269 197.312C422.396 198.547 422.93 199.131 423.85 199.035H423.982C424.825 198.948 425.267 198.323 425.135 197.033L424.663 192.327L421.797 192.611L422.269 197.312Z" fill="#B5B5B5"/>
<path d="M431.553 250.127L428.504 266.222L424.246 265.413L426.278 254.665L411.216 251.809L412.232 246.463L431.553 250.127Z" fill="#B5B5B5"/>
<path d="M408.542 281.365C407.374 281.03 404.081 279.094 406.174 271.801L406.444 270.861C408.441 263.904 412.745 263.269 416.125 264.255L416.48 264.356C419.656 265.266 423.219 267.995 421.298 274.672L420.978 275.79C418.909 283.007 414.524 283.149 410.585 282.021L410.128 281.889L413.812 269.062C412.125 268.798 410.504 269.459 409.64 272.482C408.817 275.353 409.833 276.039 410.021 276.222L408.542 281.365ZM416.465 269.86L414.321 277.33C415.362 277.63 416.978 277.544 417.878 274.368C418.63 271.801 417.863 270.531 416.465 269.86V269.86Z" fill="#B5B5B5"/>
<path d="M401.109 287.931L403.106 283.037L416.679 288.576L414.733 293.348L406.516 289.994L412.06 299.904L410.063 304.797L396.489 299.258L398.431 294.486L406.653 297.84L401.109 287.931ZM414.941 296.829C416.527 292.937 419.449 293.333 420.724 293.851L420.796 293.882L419.327 297.464C419.15 297.392 418.961 297.356 418.77 297.357C418.579 297.358 418.39 297.397 418.214 297.471C418.038 297.545 417.878 297.653 417.744 297.789C417.61 297.925 417.504 298.085 417.431 298.262C417.359 298.439 417.323 298.628 417.324 298.819C417.325 299.01 417.364 299.199 417.438 299.375C417.512 299.551 417.62 299.711 417.756 299.845C417.892 299.98 418.052 300.086 418.229 300.158L416.786 303.715L416.71 303.685C415.439 303.176 413.193 301.108 414.642 297.586L414.941 296.829Z" fill="#B5B5B5"/>
<path d="M392.688 306.861L395.005 302.709L407.811 309.854L404.254 316.196L393.958 315.449L400.005 323.814L396.595 329.912L383.784 322.797L386.295 318.295L394.934 323.107L388.526 314.306L390.446 310.865L401.316 311.694L392.688 306.861Z" fill="#B5B5B5"/>
<path d="M378.606 329.988L381.721 325.719L393.572 334.359L390.523 338.521L383.347 333.291L386.381 344.217L383.271 348.491L371.415 339.852L374.464 335.69L381.655 340.924L378.606 329.988Z" fill="#B5B5B5"/>
<path d="M359.117 353.024L355.778 349.899L359.295 346.138L362.633 349.258L363.142 348.699C368.732 342.733 372.883 345.325 374.83 347.129L375.14 347.419C377.03 349.187 380.029 353.299 374.469 359.239L373.925 359.819L377.284 362.959L373.763 366.725L370.404 363.584L369.865 364.163C364.305 370.109 360.006 367.39 358.116 365.622L357.806 365.332C355.875 363.528 353.014 359.544 358.593 353.583L359.117 353.024ZM367.756 361.094L361.836 355.57L361.495 355.936C359.274 358.309 360.316 360.403 361.688 361.689C363.06 362.974 365.179 363.833 367.4 361.46L367.756 361.094ZM365.373 351.804L371.278 357.328L371.623 356.963C373.839 354.589 372.878 352.562 371.466 351.245C370.053 349.929 367.934 349.065 365.713 351.439L365.373 351.804Z" fill="#B5B5B5"/>
<path d="M346.265 365.81L350.33 362.415L359.747 373.661L355.798 376.97L350.097 370.165L350.366 381.518L346.3 384.913L336.884 373.692L340.832 370.384L346.534 377.193L346.265 365.81Z" fill="#B5B5B5"/>
<path d="M333.286 384.465L329.474 378.84L333.743 375.948L341.976 388.089L337.707 390.98L334.394 386.127L333.377 393.918L328.453 397.256L329.82 388.368L319.656 385.487L324.738 382.046L333.286 384.465Z" fill="#B5B5B5"/>
<path d="M313.685 388.429L314.056 388.226C317.649 386.259 320.2 387.398 321.364 389.532L321.415 389.623C322.629 391.854 321.963 393.994 317.806 396.738L314.442 398.964C313.761 399.426 313.634 399.802 313.934 400.331C314.264 400.936 314.803 401.484 317.308 400.117C319.677 398.827 319.402 397.77 319.138 397.282L323.773 394.741V394.787C324.469 396.062 325.592 399.36 319.26 402.79L318.543 403.182C312.166 406.663 310.341 404.259 309.396 402.541L307.079 398.298C306.637 397.485 306.296 397.251 305.392 397.744L304.883 398.013L302.998 394.553L306.662 392.556C307.17 392.263 307.767 392.163 308.342 392.274C308.918 392.385 309.435 392.699 309.798 393.16C310.026 392.19 310.672 390.06 313.685 388.429ZM311.851 396.535L312.394 397.551C313.17 396.772 314.006 396.055 314.895 395.406C316.871 393.841 317.405 393.16 316.927 392.256L316.902 392.21C316.46 391.397 315.55 391.112 313.975 391.971C311.312 393.384 311.317 395.544 311.851 396.524V396.535Z" fill="#B5B5B5"/>
<path d="M281.513 400.209L286.03 398.339L287.225 401.22L300.824 395.6L306.414 409.153L301.652 411.12L297.541 401.179L291.387 403.72L295.498 413.66L290.736 415.627L286.625 405.707L284.186 406.724L281.513 400.209Z" fill="#B5B5B5"/>
<path d="M275.17 405.316L280.252 403.853L284.318 417.939L279.368 419.367L276.908 410.84L272.563 421.334L267.481 422.798L263.416 408.711L268.366 407.278L270.825 415.81L275.17 405.316Z" fill="#B5B5B5"/>
<path d="M251.794 415.927L255.168 410.337L260.896 409.321L257.12 415.531C259.707 415.586 261.389 416.771 261.765 418.956L261.821 419.271C262.278 421.898 260.494 424.276 256.876 424.901L244.979 426.975L242.464 412.527L247.546 411.643L248.389 416.486L251.794 415.927ZM254.914 421.847C256.032 421.654 256.947 421.227 256.729 420.084V419.982C256.535 418.859 255.514 418.691 254.391 418.885L248.979 419.825L249.487 422.792L254.914 421.847Z" fill="#B5B5B5"/>
<path d="M213.772 419.936C213.711 417.721 214.915 413.747 221.969 413.544L223.265 413.508C230.577 413.295 232.092 418.01 232.168 420.785V421.151C232.249 423.926 231.091 428.743 223.722 428.957L222.507 428.992C215.433 429.196 213.919 425.379 213.868 423.265L219.255 423.108C219.346 423.529 219.9 425.338 222.939 425.252H223.204C226.253 425.166 226.893 423.057 226.842 421.288V421.263C226.791 419.438 225.856 417.299 222.873 417.385H222.609C219.56 417.472 219.153 419.464 219.163 419.809L213.772 419.936Z" fill="#B5B5B5"/>
<path d="M192.418 417.294C192.51 416.084 193.739 412.466 201.301 413.035L202.272 413.107C209.493 413.65 210.987 417.741 210.723 421.237V421.608C210.474 424.901 208.527 428.941 201.576 428.418L200.417 428.332C192.926 427.773 191.9 423.494 192.205 419.428L192.24 418.956L205.55 419.972C205.463 418.27 204.487 416.821 201.352 416.583C198.374 416.359 197.917 417.492 197.769 417.716L192.418 417.294ZM205.285 422.716L197.541 422.132C197.459 423.214 197.871 424.779 201.164 425.028C203.827 425.227 204.909 424.226 205.285 422.716V422.716Z" fill="#B5B5B5"/>
<path d="M186.95 426.741L181.939 425.811L182.28 423.966C181.533 424.525 179.363 425.628 176.09 425.018L175.75 424.957C170.246 423.941 169.143 419.835 169.789 416.404L169.87 415.962C170.455 412.817 173.077 408.949 178.56 409.971L178.926 410.037C182.224 410.647 183.713 412.486 184.221 413.223L185.481 406.414L190.563 407.359L186.95 426.741ZM175.074 417.146C174.784 418.701 175.12 420.943 178.291 421.532L178.55 421.583C181.599 422.147 182.925 420.323 183.235 418.661V418.579C183.53 416.994 182.956 414.738 179.917 414.173L179.658 414.128C176.487 413.538 175.353 415.586 175.084 417.065L175.074 417.146Z" fill="#B5B5B5"/>
<path d="M168.163 408.091L163.94 422.137L152.851 418.808C149.64 417.843 147.958 416.094 148.628 413.864L148.664 413.736C149.172 411.993 150.615 411.287 152.394 411.521C150.732 410.799 149.553 409.122 150.163 407.1L150.194 406.998C150.961 404.457 153.05 403.547 156.571 404.604L168.163 408.091ZM156.155 413.681C154.965 413.32 154.218 413.594 153.954 414.478L153.918 414.605C153.675 415.419 154.086 416.064 155.326 416.44L159.854 417.797L160.687 415.043L156.155 413.681ZM157.638 407.999C156.322 407.603 155.463 407.816 155.164 408.802L155.103 409.005C154.838 409.89 155.275 410.626 156.719 411.063L161.455 412.486L162.375 409.437L157.638 407.999Z" fill="#B5B5B5"/>
<path d="M143.587 399.919L148.455 401.952L142.758 415.485L138.007 413.483L141.457 405.301L131.482 410.733L126.613 408.701L132.31 395.188L137.062 397.19L133.611 405.367L143.587 399.919Z" fill="#B5B5B5"/>
<path d="M110.667 389.954C111.744 388.012 114.808 385.207 120.978 388.627L122.111 389.252C128.514 392.81 127.411 397.627 126.065 400.051L125.887 400.376C124.545 402.806 121.095 406.358 114.646 402.785L113.579 402.201C107.384 398.765 108.029 394.715 109.056 392.865L113.772 395.478C113.634 395.889 113.192 397.724 115.85 399.197L116.084 399.324C118.742 400.798 120.378 399.324 121.232 397.769C122.116 396.179 122.401 393.856 119.788 392.413L119.56 392.286C116.877 390.797 115.525 392.317 115.357 392.616L110.667 389.954Z" fill="#B5B5B5"/>
<path d="M104.259 378.154C110.723 382.697 108.955 387.326 107.42 389.512L107.206 389.816C105.682 391.976 101.835 395.34 95.3962 390.833L94.6797 390.325C88.0225 385.644 90.1061 381.015 91.6052 378.896L91.8491 378.55C93.3737 376.385 96.931 373.001 103.588 377.691L104.259 378.154ZM101.586 380.989C98.9281 379.119 96.9208 380.552 95.9959 381.874C95.071 383.195 94.4307 385.522 97.0732 387.413L97.307 387.58C100.077 389.527 101.916 388.089 102.872 386.742C103.827 385.395 104.574 383.129 101.804 381.182L101.586 380.989Z" fill="#B5B5B5"/>
<path d="M93.5156 370.831L83.8601 381.874L75.1448 374.251C72.6039 372.04 71.806 369.753 73.3357 368.005L73.4271 367.904C74.6264 366.532 76.212 366.481 77.7365 367.426C76.522 366.084 76.1459 364.072 77.5383 362.476L77.6044 362.4C79.3627 360.367 81.6343 360.444 84.3988 362.863L93.5156 370.831ZM80.2673 370.973C79.3322 370.155 78.5394 370.094 77.9296 370.79L77.8432 370.892C77.2893 371.527 77.396 372.289 78.3514 373.143L81.9087 376.253L83.8093 374.083L80.2673 370.973ZM83.9668 366.399C82.9505 365.495 82.0612 365.332 81.3802 366.105L81.243 366.267C80.6332 366.964 80.7348 367.817 81.863 368.808L85.5829 372.061L87.6867 369.652L83.9668 366.399Z" fill="#B5B5B5"/>
<path d="M37.4222 338.724L28.6611 324.876L32.3251 322.559L38.1743 331.802L51.1279 323.611L54.0398 328.184L37.4222 338.724Z" fill="#B5B5B5"/>
<path d="M32.8998 300.183C33.9822 299.634 37.7072 298.796 41.1577 305.55L41.6049 306.419C44.898 312.862 42.1893 316.267 39.064 317.868L38.7337 318.036C35.7913 319.56 31.3295 319.982 28.1686 313.792L27.6604 312.776C24.2454 306.098 27.3453 302.998 30.9941 301.133L31.4159 300.915L37.4887 312.796C38.9014 311.841 39.6281 310.255 38.2001 307.45C36.8382 304.792 35.6592 304.991 35.3645 304.98L32.8998 300.183ZM34.9681 313.99L31.4362 307.074C30.4707 307.582 29.3476 308.736 30.8518 311.678C32.0664 314.051 33.4842 314.453 34.9681 313.99Z" fill="#B5B5B5"/>
<path d="M17.664 293.277C19.1631 297.2 16.7594 298.908 15.4788 299.375L15.4025 299.401L14.0152 295.772C14.3465 295.617 14.6072 295.343 14.7454 295.005C14.8837 294.666 14.8892 294.288 14.7609 293.946C14.6327 293.603 14.3801 293.322 14.0535 293.157C13.7269 292.993 13.3503 292.958 12.9988 293.059L11.6318 289.501L11.7081 289.471C12.9887 288.963 16.0327 288.963 17.3997 292.52L17.664 293.277ZM33.8445 290.319L35.7298 295.254L22.0089 300.488L20.1744 295.676L28.4679 292.51L17.6487 289.059L15.7634 284.125L29.4843 278.89L31.3239 283.703L23.0304 286.874L33.8445 290.319Z" fill="#B5B5B5"/>
<path d="M27.0548 270.744L28.2033 275.364L13.9742 278.89L12.2057 271.837L20.24 265.352L10.1069 263.376L8.4248 256.576L22.6539 253.044L23.8939 258.05L14.2994 260.428L24.9712 262.461L25.9164 266.282L17.4654 273.122L27.0548 270.744Z" fill="#B5B5B5"/>
<path d="M21.5566 244.263L22.1969 249.507L7.63239 251.286L7.00733 246.169L15.8192 245.091L6.16375 239.141L5.52344 233.891L20.0829 232.117L20.7079 237.23L11.891 238.307L21.5566 244.263Z" fill="#B5B5B5"/>
<path d="M20.0275 214.153L24.6011 214.077L24.6875 219.23L20.1139 219.306V220.074C20.246 228.235 15.4538 229.261 12.8113 229.307H12.3895C9.79775 229.348 4.79216 228.479 4.66003 220.343V219.55L0.0863901 219.621L0 214.473L4.57364 214.397V213.604C4.44151 205.473 9.4217 204.457 12.0083 204.396H12.4352C15.0778 204.355 19.9004 205.229 20.058 213.391L20.0275 214.153ZM8.2173 214.346L16.3025 214.214V213.706C16.2517 210.459 14.0462 209.671 12.171 209.701C10.2958 209.732 8.16649 210.586 8.22239 213.838L8.2173 214.346ZM16.3838 219.367L8.3037 219.494V220.002C8.3596 223.25 10.4584 224.037 12.3692 224.007C14.2799 223.976 16.4346 223.123 16.3736 219.87L16.3838 219.367Z" fill="#B5B5B5"/>
<path d="M20.7134 195.965L20.0731 201.21L5.51367 199.431L6.13873 194.303L14.9557 195.381L6.99756 187.25L7.63279 182.041L22.1922 183.82L21.5671 188.932L12.7553 187.86L20.7134 195.965Z" fill="#B5B5B5"/>
<path d="M17.446 173.468L24.0524 174.993L22.909 180.019L8.64941 176.756L9.79282 171.73L15.5099 173.031L10.9362 166.628L12.2524 160.83L17.2885 168.269L26.6797 163.437L25.333 169.403L17.446 173.468Z" fill="#B5B5B5"/>
<path d="M29.0633 157.206L28.9312 157.608C27.6455 161.495 25.0029 162.405 22.6958 161.637L22.5992 161.607C20.1904 160.809 19.2147 158.787 20.3784 153.939L21.3135 150.015C21.4964 149.212 21.3389 148.857 20.7596 148.664C20.1803 148.47 19.3418 148.415 18.4423 151.123C17.5936 153.664 18.5134 154.264 19.0419 154.442L17.3802 159.457H17.3294C15.9471 159 12.8929 157.374 15.1645 150.529L15.4237 149.751C17.7105 142.85 20.6834 143.363 22.5382 143.978L27.1119 145.503C27.991 145.792 28.3976 145.731 28.7228 144.756L28.8956 144.247L32.6358 145.487L31.3196 149.451C31.1481 150.011 30.7802 150.491 30.2836 150.802C29.787 151.113 29.1949 151.234 28.6161 151.144C29.1649 151.972 30.1457 153.964 29.0633 157.206ZM24.8759 150.026L23.7934 149.67C23.7591 150.77 23.6385 151.866 23.4326 152.948C23.0515 155.438 23.1328 156.297 24.1085 156.622H24.1593C25.0385 156.911 25.8973 156.505 26.4614 154.797C27.4117 151.972 25.9278 150.397 24.8759 150.046V150.026Z" fill="#B5B5B5"/>
<path d="M44.5524 126.649L42.5197 131.096L39.6841 129.8L33.5859 143.19L20.2461 137.092L22.3855 132.407L32.1528 136.879L34.9173 130.821L25.1348 126.354L27.2742 121.669L37.0568 126.131L38.1544 123.727L44.5524 126.649Z" fill="#B5B5B5"/>
<path d="M45.7057 118.584L42.992 123.122L30.4043 115.586L33.0468 111.165L40.6696 115.739L36.6804 105.107L39.394 100.569L51.9817 108.096L49.3392 112.517L41.7164 107.943L45.7057 118.584Z" fill="#B5B5B5"/>
<path d="M55.5291 94.8675L56.8757 101.245L53.3693 105.88L51.8854 98.7653C49.9543 100.488 47.9216 100.773 46.148 99.4361L45.899 99.2481C43.7646 97.6371 43.4445 94.6744 45.6602 91.7524L52.9322 82.0969L64.6204 90.9291L61.5205 95.0403L57.5974 92.0827L55.5291 94.8675ZM49.2073 92.6671C48.5212 93.5717 48.1604 94.4915 49.0904 95.208L49.1717 95.269C50.0813 95.955 50.9453 95.3808 51.6262 94.4762L54.9345 90.0856L52.5308 88.2713L49.2073 92.6671Z" fill="#B5B5B5"/>
</g>
<defs>
<clipPath id="clip0">
<rect width="431.553" height="429" fill="white"/>
</clipPath>
</defs>
</svg>
