<svg width="80" height="80" viewBox="0 0 80 80" fill="none" xmlns="http://www.w3.org/2000/svg">
<path d="M67.1875 71.1228C67.8347 71.1228 68.3594 70.5981 68.3594 69.9509V16.7969C68.3594 14.8583 66.7823 13.2812 64.8438 13.2812H63.6719V10.1562C63.6719 8.21766 62.0948 6.64062 60.1562 6.64062H54.9794C54.3322 6.64062 53.8075 7.16531 53.8075 7.8125C53.8075 8.45969 54.3322 8.98438 54.9794 8.98438H60.1562C60.8025 8.98438 61.3281 9.51 61.3281 10.1562V69.8438C61.3281 70.49 60.8025 71.0156 60.1562 71.0156H15.1562C14.51 71.0156 13.9844 70.49 13.9844 69.8438V65.0781C13.9844 64.4309 13.4597 63.9062 12.8125 63.9062C12.1653 63.9062 11.6406 64.4309 11.6406 65.0781V69.8438C11.6406 71.7823 13.2177 73.3594 15.1562 73.3594H16.3281V76.4844C16.3281 78.423 17.9052 80 19.8438 80H64.8438C66.7823 80 68.3594 78.423 68.3594 76.4844V74.9872C68.3594 74.34 67.8347 73.8153 67.1875 73.8153C66.5403 73.8153 66.0156 74.34 66.0156 74.9872V76.4844C66.0156 77.1306 65.49 77.6562 64.8438 77.6562H19.8438C19.1975 77.6562 18.6719 77.1306 18.6719 76.4844V73.3594H60.1562C62.0948 73.3594 63.6719 71.7823 63.6719 69.8438V15.625H64.8438C65.49 15.625 66.0156 16.1506 66.0156 16.7969V69.9509C66.0156 70.5981 66.5403 71.1228 67.1875 71.1228Z" fill="black"/>
<path d="M12.8125 61.1155C13.4597 61.1155 13.9844 60.5908 13.9844 59.9436V10.1562C13.9844 9.51016 14.5102 8.98438 15.1562 8.98438H17.2883V12.9187C17.2883 14.1525 18.292 15.1562 19.5258 15.1562H33.0195C34.2533 15.1562 35.257 14.1525 35.257 12.9187V8.98438H49.9505C50.5977 8.98438 51.1223 8.45969 51.1223 7.8125C51.1223 7.16531 50.5977 6.64062 49.9505 6.64062H34.8997C34.3305 5.48484 33.1406 4.6875 31.7675 4.6875H30.882V3.13719C30.882 1.40734 29.4747 0 27.7448 0H24.8003C23.0705 0 21.6631 1.40734 21.6631 3.13719V4.6875H20.7777C19.4045 4.6875 18.2147 5.48484 17.6455 6.64062H15.1562C13.2177 6.64062 11.6406 8.21766 11.6406 10.1562V59.9436C11.6406 60.5908 12.1653 61.1155 12.8125 61.1155ZM24.007 3.13719C24.007 2.69969 24.363 2.34375 24.8005 2.34375H27.745C28.1825 2.34375 28.5384 2.69969 28.5384 3.13719V4.6875H24.0072V3.13719H24.007ZM20.7778 7.03125H31.7673C32.3992 7.03125 32.9131 7.54531 32.9131 8.17703V12.8125H19.6319V8.17703C19.632 7.54531 20.1459 7.03125 20.7778 7.03125Z" fill="black"/>
<path d="M54.6094 26.0938H35.8594C35.2122 26.0938 34.6875 26.6184 34.6875 27.2656C34.6875 27.9128 35.2122 28.4375 35.8594 28.4375H54.6094C55.2566 28.4375 55.7812 27.9128 55.7812 27.2656C55.7812 26.6184 55.2566 26.0938 54.6094 26.0938Z" fill="black"/>
<path d="M54.6094 31.0938H35.8594C35.2122 31.0938 34.6875 31.6184 34.6875 32.2656C34.6875 32.9128 35.2122 33.4375 35.8594 33.4375H54.6094C55.2566 33.4375 55.7812 32.9128 55.7812 32.2656C55.7812 31.6184 55.2566 31.0938 54.6094 31.0938Z" fill="black"/>
<path d="M54.6094 41.25H35.8594C35.2122 41.25 34.6875 41.7747 34.6875 42.4219C34.6875 43.0691 35.2122 43.5938 35.8594 43.5938H54.6094C55.2566 43.5938 55.7812 43.0691 55.7812 42.4219C55.7812 41.7747 55.2566 41.25 54.6094 41.25Z" fill="black"/>
<path d="M54.6094 46.25H35.8594C35.2122 46.25 34.6875 46.7747 34.6875 47.4219C34.6875 48.0691 35.2122 48.5938 35.8594 48.5938H54.6094C55.2566 48.5938 55.7812 48.0691 55.7812 47.4219C55.7812 46.7747 55.2566 46.25 54.6094 46.25Z" fill="black"/>
<path d="M54.6094 56.4062H35.8594C35.2122 56.4062 34.6875 56.9309 34.6875 57.5781C34.6875 58.2253 35.2122 58.75 35.8594 58.75H54.6094C55.2566 58.75 55.7812 58.2253 55.7812 57.5781C55.7812 56.9309 55.2566 56.4062 54.6094 56.4062Z" fill="black"/>
<path d="M54.6094 61.4062H35.8594C35.2122 61.4062 34.6875 61.9309 34.6875 62.5781C34.6875 63.2253 35.2122 63.75 35.8594 63.75H54.6094C55.2566 63.75 55.7812 63.2253 55.7812 62.5781C55.7812 61.9309 55.2566 61.4062 54.6094 61.4062Z" fill="black"/>
<path d="M33.7819 24.3953C33.3617 23.9031 32.622 23.8446 32.1297 24.2649L31.047 25.1892C30.7473 24.6134 30.1459 24.2187 29.4531 24.2187H21.3281C20.3373 24.2187 19.5312 25.0248 19.5312 26.0156V34.1406C19.5312 35.1313 20.3373 35.9374 21.3281 35.9374H29.4531C30.4439 35.9374 31.25 35.1313 31.25 34.1406V28.0976L33.6516 26.0476C34.1438 25.6273 34.2022 24.8876 33.7819 24.3953ZM28.9063 33.5937H21.875V26.5624H28.9063V27.0167L26.5809 29.0018L25.4706 27.7988C25.0317 27.3232 24.2903 27.2937 23.8147 27.7326C23.3391 28.1717 23.3095 28.9131 23.7484 29.3885L25.6234 31.4198C25.8541 31.6696 26.1688 31.7968 26.485 31.7968C26.7545 31.7968 27.0252 31.7043 27.2455 31.5162L28.9064 30.0982V33.5937H28.9063Z" fill="#2F44FF"/>
<path d="M33.782 39.661C33.3619 39.1688 32.6222 39.1104 32.1298 39.5307L31.0844 40.423C30.7997 39.8055 30.1764 39.3751 29.4531 39.3751H21.3281C20.3373 39.3751 19.5312 40.1812 19.5312 41.1719V49.2969C19.5312 50.2877 20.3373 51.0938 21.3281 51.0938H29.4531C30.4439 51.0938 31.25 50.2877 31.25 49.2969V43.3632L33.6516 41.3132C34.1439 40.8929 34.2023 40.1532 33.782 39.661ZM28.9064 48.7501H21.8752V41.7188H28.9064V42.2824L26.5811 44.2676L25.4708 43.0646C25.0319 42.589 24.2905 42.5593 23.8148 42.9983C23.3392 43.4374 23.3097 44.1788 23.7486 44.6543L25.6236 46.6855C25.8542 46.9354 26.1689 47.0626 26.4852 47.0626C26.7547 47.0626 27.0253 46.9701 27.2456 46.7819L28.9066 45.364V48.7501H28.9064Z" fill="#2F44FF"/>
<path d="M32.1297 54.9681L31.1673 55.7897C30.938 55.0611 30.2564 54.5312 29.4531 54.5312H21.3281C20.3373 54.5312 19.5312 55.3373 19.5312 56.3281V64.4531C19.5312 65.4439 20.3373 66.25 21.3281 66.25H29.4531C30.4439 66.25 31.25 65.4439 31.25 64.4531V58.8008L33.6516 56.7508C34.1438 56.3306 34.2022 55.5909 33.7819 55.0986C33.3617 54.6063 32.622 54.5478 32.1297 54.9681ZM28.9063 63.9062H21.875V56.875H28.9063V57.7198L26.5809 59.705L25.4706 58.502C25.0317 58.0264 24.2903 57.9967 23.8147 58.4358C23.3391 58.8748 23.3095 59.6163 23.7484 60.0917L25.6234 62.123C25.8541 62.3728 26.1688 62.5 26.485 62.5C26.7545 62.5 27.0252 62.4075 27.2455 62.2194L28.9064 60.8014V63.9062H28.9063Z" fill="#2F44FF"/>
</svg>
