<svg width="80" height="75" viewBox="0 0 80 75" fill="none" xmlns="http://www.w3.org/2000/svg">
<path d="M64.4538 4.8959C66.2211 5.47364 67.7402 6.607 68.8166 8.08517C69.8795 9.55433 70.5084 11.3642 70.5084 13.3172C70.5084 14.7281 70.1763 16.0719 69.5872 17.2682C69.0645 18.3209 68.3472 19.2525 67.4744 20.0142V26.7555C67.4744 27.4096 66.9519 27.9382 66.3053 27.9382H57.2033C56.5566 27.9382 56.0339 27.4094 56.0339 26.7555V20.0142C55.1614 19.2525 54.4439 18.3209 53.9258 17.2682C53.3322 16.0719 53 14.7281 53 13.3172C53 11.3642 53.6289 9.55417 54.6919 8.08517C55.7816 6.58456 57.3317 5.4422 59.13 4.86888C59.7502 4.67625 60.4056 5.02138 60.5961 5.64858C60.6316 5.76062 60.6536 5.88166 60.6536 5.99797V11.7406L61.7566 12.2063L62.8595 11.7406V5.99797C62.8595 5.3439 63.3822 4.81531 64.0287 4.81531C64.1792 4.81499 64.3255 4.84186 64.4538 4.8959ZM60.5828 25.5684V19.454C60.5828 18.7999 61.1055 18.2669 61.7566 18.2669C62.4033 18.2669 62.9258 18.7999 62.9258 19.454V25.5684H65.1316V19.454H65.1358C65.1358 19.0956 65.2997 18.7419 65.6053 18.509C66.3981 17.9044 67.0492 17.1204 67.4966 16.2154C67.9261 15.3508 68.1653 14.3654 68.1653 13.3172C68.1653 11.8792 67.7091 10.5534 66.9295 9.48258C66.4602 8.83752 65.8711 8.27764 65.2022 7.84307V12.5285C65.2022 12.99 64.932 13.4291 64.4847 13.6172L62.2081 14.5847C61.9291 14.7058 61.6012 14.7146 61.3002 14.5847L59.0591 13.635C58.6203 13.465 58.3059 13.0304 58.3059 12.5285V7.84307C57.6372 8.27764 57.0481 8.83752 56.5786 9.48258C55.8034 10.5532 55.3428 11.8792 55.3428 13.3172C55.3428 14.3654 55.582 15.3508 56.0116 16.2154C56.4456 17.0888 57.0702 17.8549 57.8275 18.4507C58.1597 18.6615 58.3769 19.0331 58.3769 19.4541V25.5686L60.5828 25.5684Z" fill="#2F44FF"/>
<path d="M18.3103 39.706H22.2569C23.2225 39.706 24.0994 40.1047 24.7328 40.7498C25.3706 41.3903 25.7648 42.2815 25.7648 43.2581C25.7648 44.2347 25.3706 45.1217 24.7328 45.7668C24.0994 46.4072 23.2225 46.8059 22.2569 46.8059H18.3103C17.3447 46.8059 16.4678 46.4072 15.8344 45.7668C15.4403 45.3679 15.1391 44.8753 14.9662 44.3287C14.1027 44.1318 13.323 43.6879 12.7163 43.0743C11.8836 42.2278 11.3653 41.0631 11.3653 39.782V38.5009H9.26141C8.29578 38.5009 7.41891 38.1022 6.78547 37.4618C6.1475 36.8167 5.75344 35.9297 5.75344 34.9531V30.2228C5.75344 29.2462 6.1475 28.3592 6.78547 27.7141C7.41891 27.0737 8.29578 26.675 9.26141 26.675H11.4272C11.7019 24.0636 12.8711 21.7163 14.6163 19.9511C16.6227 17.9221 19.3862 16.6631 22.4338 16.6631C25.4809 16.6631 28.2447 17.9221 30.2511 19.9511C31.9962 21.7163 33.1655 24.0634 33.4402 26.675H35.6059C36.5716 26.675 37.4486 27.0737 38.0864 27.7141C38.7197 28.3592 39.1139 29.2462 39.1139 30.2228V34.9531C39.1139 35.9297 38.7197 36.8167 38.0864 37.4618C37.4486 38.1022 36.5716 38.5009 35.6059 38.5009H32.3328C31.6861 38.5009 31.1591 37.9722 31.1591 37.3183V27.8578C31.1591 25.4343 30.1758 23.2259 28.5945 21.6265C27.0133 20.0275 24.8342 19.033 22.4336 19.033C20.0373 19.033 17.8536 20.0275 16.2725 21.6265C14.6912 23.2259 13.708 25.4343 13.708 27.8578V37.3183V39.7822C13.708 40.4094 13.965 40.9826 14.3723 41.3991C14.5761 41.6006 14.8153 41.7664 15.0766 41.8831C15.2537 41.4576 15.5106 41.0723 15.8341 40.7498C16.4678 40.1047 17.3447 39.706 18.3103 39.706ZM22.2567 42.0758H18.3102C17.9912 42.0758 17.7033 42.2101 17.4908 42.4252C17.2783 42.6399 17.1453 42.9356 17.1453 43.2583C17.1453 43.5808 17.2783 43.8765 17.4908 44.0873C17.7033 44.302 17.9912 44.4367 18.3102 44.4367H22.2567C22.5756 44.4367 22.8634 44.302 23.0761 44.0873C23.2886 43.8765 23.4216 43.5808 23.4216 43.2583C23.4216 42.9357 23.2886 42.6401 23.0761 42.4252C22.8634 42.2101 22.5756 42.0758 22.2567 42.0758ZM11.3653 29.0449H9.26141C8.9425 29.0449 8.65469 29.1744 8.44203 29.3897C8.22953 29.6047 8.09656 29.9004 8.09656 30.2229V34.9533C8.09656 35.2758 8.22937 35.5715 8.44203 35.7819C8.65469 35.997 8.9425 36.1313 9.26141 36.1313H11.3653V29.0449ZM35.6063 29.0449H33.5025V36.1313H35.6063C35.9252 36.1313 36.2175 35.997 36.4256 35.7819C36.6383 35.5715 36.7711 35.2758 36.7711 34.9533V30.2229C36.7711 29.9004 36.6383 29.6047 36.4256 29.3897C36.2175 29.1744 35.9252 29.0449 35.6063 29.0449ZM46.5108 46.5507C45.8641 46.5507 45.3416 46.0177 45.3416 45.3636C45.3416 44.7096 45.8642 44.1766 46.5108 44.1766H73.5112C74.1581 44.1766 74.6805 44.7096 74.6805 45.3636C74.6805 46.0177 74.158 46.5507 73.5112 46.5507H46.5108ZM46.5108 41.9459C45.8641 41.9459 45.3416 41.4171 45.3416 40.7632C45.3416 40.1093 45.8642 39.5761 46.5108 39.5761H56.5208C57.1719 39.5761 57.6945 40.1091 57.6945 40.7632C57.6945 41.4173 57.1719 41.9459 56.5208 41.9459H46.5108ZM47.6847 18.2939C47.6847 18.948 47.162 19.4813 46.5108 19.4813C45.8641 19.4813 45.3416 18.948 45.3416 18.2939V13.1828H4.965C4.24312 13.1828 3.59203 13.4784 3.11359 13.9625C2.63969 14.4418 2.34281 15.1048 2.34281 15.8303V29.9047C2.34281 30.5587 1.82016 31.0873 1.17359 31.0873C0.527031 31.0873 0 30.5587 0 29.9048V15.8305C0 14.4509 0.558125 13.1965 1.45719 12.2872C2.35625 11.3777 3.59641 10.8135 4.965 10.8135H45.3414V4.25546C45.3414 3.08165 45.8153 2.02004 46.5772 1.24966C47.3391 0.47929 48.3889 0 49.5448 0H75.7969C76.9528 0 78.007 0.47929 78.7688 1.24966C79.5305 2.01988 80 3.08149 80 4.2553V28.4983V51.5721V56.1771C80 57.557 79.4419 58.8114 78.5428 59.7207C77.6438 60.63 76.4036 61.1944 75.0394 61.1944H48.1586L50.9711 68.03H55.7902C56.4411 68.03 56.9639 68.5587 56.9639 69.2126V73.8177C56.9639 74.4717 56.4411 75 55.7902 75H24.272C23.6209 75 23.0983 74.4716 23.0983 73.8177V69.2126C23.0983 68.5586 23.6209 68.03 24.272 68.03H29.0909L31.9034 61.1944H4.965C3.59641 61.1944 2.35625 60.63 1.45719 59.7207C0.558125 58.8114 0 57.557 0 56.177V51.572V35.2714C0 34.6173 0.527031 34.0887 1.17375 34.0887C1.82047 34.0887 2.34297 34.6175 2.34297 35.2714V50.3896H77.6569V32.3103C77.0944 32.5927 76.4655 32.7539 75.7969 32.7539H68.617L63.6608 40.6379C63.3153 41.1935 62.5891 41.3545 62.0441 41.0052C61.8891 40.9067 61.7608 40.7721 61.672 40.6243L56.7245 32.7539H49.545C48.3891 32.7539 47.3392 32.2746 46.5773 31.5042C45.8155 30.7338 45.3416 29.6717 45.3416 28.4984V23.6651C45.3416 23.0067 45.8642 22.478 46.5108 22.478C47.162 22.478 47.6847 23.0067 47.6847 23.6651V28.4984C47.6847 29.0182 47.893 29.4883 48.2341 29.8287C48.5706 30.1691 49.0358 30.3843 49.5452 30.3843H57.367C57.7567 30.3843 58.1333 30.5769 58.3547 30.9355L62.6733 37.7979L66.9608 30.9802C67.16 30.6218 67.5411 30.3843 67.975 30.3843H75.7969C76.3063 30.3843 76.7711 30.1692 77.1078 29.8287C77.4489 29.4883 77.657 29.0182 77.657 28.4984V4.2553C77.657 3.73587 77.4489 3.26512 77.1078 2.92473C76.7712 2.58434 76.3063 2.36911 75.7969 2.36911H49.545C49.0356 2.36911 48.5706 2.58419 48.2339 2.92473C47.8928 3.26512 47.6845 3.73587 47.6845 4.2553L47.6847 18.2939ZM77.6569 52.7592H2.34297V56.1771C2.34297 56.9028 2.63969 57.566 3.11375 58.0453C3.59219 58.5289 4.24328 58.8247 4.96516 58.8247H75.0395C75.757 58.8247 76.4125 58.5248 76.8864 58.0453C77.3647 57.566 77.657 56.9028 77.657 56.1771L77.6569 52.7592ZM25.7823 56.979C25.1356 56.979 24.6086 56.4459 24.6086 55.7919C24.6086 55.1378 25.1356 54.6048 25.7823 54.6048H30.9245C31.5713 54.6048 32.0938 55.1378 32.0938 55.7919C32.0938 56.4459 31.5711 56.979 30.9245 56.979H25.7823ZM52.9464 56.979C52.2997 56.979 51.7727 56.4459 51.7727 55.7919C51.7727 55.1378 52.2997 54.6048 52.9464 54.6048H54.222C54.8687 54.6048 55.3913 55.1378 55.3913 55.7919C55.3913 56.4459 54.8686 56.979 54.222 56.979H52.9464ZM47.1222 56.979C46.4753 56.979 45.9483 56.4459 45.9483 55.7919C45.9483 55.1378 46.4753 54.6048 47.1222 54.6048H48.3978C49.0445 54.6048 49.567 55.1378 49.567 55.7919C49.567 56.4459 49.0444 56.979 48.3978 56.979H47.1222ZM41.2978 56.979C40.6511 56.979 40.1241 56.4459 40.1241 55.7919C40.1241 55.1378 40.6511 54.6048 41.2978 54.6048H42.5734C43.2202 54.6048 43.7427 55.1378 43.7427 55.7919C43.7427 56.4459 43.22 56.979 42.5734 56.979H41.2978ZM35.4734 56.979C34.8267 56.979 34.2997 56.4459 34.2997 55.7919C34.2997 55.1378 34.8267 54.6048 35.4734 54.6048H36.7489C37.3956 54.6048 37.9181 55.1378 37.9181 55.7919C37.9181 56.4459 37.3955 56.979 36.7489 56.979H35.4734ZM42.6841 70.3996C42.0373 70.3996 41.5148 69.8708 41.5148 69.2125C41.5148 68.5584 42.0375 68.0298 42.6841 68.0298H48.4377L45.6206 61.1943H34.4414L31.6244 68.0298H37.378C38.0247 68.0298 38.5472 68.5586 38.5472 69.2125C38.5472 69.8708 38.0245 70.3996 37.378 70.3996H25.4412V72.6304H54.6206V70.3996H42.6841Z" fill="black"/>
</svg>
