<svg width="80" height="80" viewBox="0 0 80 80" fill="none" xmlns="http://www.w3.org/2000/svg">
<g clip-path="url(#clip0)">
<path d="M37.1875 58.0453C36.5402 58.0453 36.0156 58.57 36.0156 59.2172C36.0156 59.8644 36.5402 60.389 37.1875 60.389H42.8125C43.4598 60.389 43.9844 59.8644 43.9844 59.2172C43.9844 58.57 43.4598 58.0453 42.8125 58.0453H37.1875Z" fill="#2F44FF"/>
<path d="M14.0625 39.849H21.8088C22.2819 41.0804 23.4739 41.9584 24.8698 41.9584C26.2658 41.9584 27.4578 41.0804 27.9309 39.849H29.4792C30.1266 39.849 30.6511 39.3243 30.6511 38.6771C30.6511 38.0299 30.1266 37.5052 29.4792 37.5052H27.9309C27.4578 36.2738 26.2658 35.3959 24.8698 35.3959C23.4739 35.3959 22.2819 36.2738 21.8088 37.5052H14.0625C13.4152 37.5052 12.8906 38.0299 12.8906 38.6771C12.8906 39.3243 13.4152 39.849 14.0625 39.849ZM24.8698 37.7396C25.3869 37.7396 25.8073 38.1601 25.8073 38.6771C25.8073 39.1942 25.3869 39.6146 24.8698 39.6146C24.3528 39.6146 23.9323 39.1942 23.9323 38.6771C23.9323 38.1601 24.3528 37.7396 24.8698 37.7396Z" fill="#2F44FF"/>
<path d="M14.0625 33.1302H15.5587C16.0319 34.3617 17.2239 35.2396 18.6198 35.2396C20.0158 35.2396 21.2078 34.3617 21.6809 33.1302H29.4792C30.1266 33.1302 30.6511 32.6056 30.6511 31.9584C30.6511 31.3112 30.1266 30.7865 29.4792 30.7865H21.6809C21.2078 29.5551 20.0158 28.6771 18.6198 28.6771C17.2239 28.6771 16.0319 29.5551 15.5587 30.7865H14.0625C13.4152 30.7865 12.8906 31.3112 12.8906 31.9584C12.8906 32.6056 13.4152 33.1302 14.0625 33.1302ZM18.6198 31.0209C19.1369 31.0209 19.5573 31.4413 19.5573 31.9584C19.5573 32.4754 19.1369 32.8959 18.6198 32.8959C18.1028 32.8959 17.6823 32.4754 17.6823 31.9584C17.6823 31.4413 18.1028 31.0209 18.6198 31.0209Z" fill="#2F44FF"/>
<path d="M29.7139 22.349C30.3611 22.349 30.8857 21.8243 30.8857 21.1771C30.8857 20.5299 30.3611 20.0052 29.7139 20.0052C29.0667 20.0052 28.542 20.5299 28.542 21.1771C28.542 21.8243 29.0667 22.349 29.7139 22.349Z" fill="black"/>
<path d="M26.4844 22.349C27.1316 22.349 27.6562 21.8243 27.6562 21.1771C27.6562 20.5299 27.1316 20.0052 26.4844 20.0052C25.8372 20.0052 25.3125 20.5299 25.3125 21.1771C25.3125 21.8243 25.8372 22.349 26.4844 22.349Z" fill="black"/>
<path d="M23.2549 22.349C23.9021 22.349 24.4268 21.8243 24.4268 21.1771C24.4268 20.5299 23.9021 20.0052 23.2549 20.0052C22.6077 20.0052 22.083 20.5299 22.083 21.1771C22.083 21.8243 22.6077 22.349 23.2549 22.349Z" fill="black"/>
<path d="M76.4844 7.88791H76.0455L76.3728 7.56057C77.3533 6.5801 77.3533 4.98463 76.3728 4.00416L73.8075 1.43885C72.827 0.458535 71.2317 0.458535 70.2511 1.43885L63.8025 7.88775H3.51562C1.57719 7.88775 0 9.46479 0 11.4034V60.0696C0 62.439 1.9275 64.3665 4.29688 64.3665H32.0539V72.6563H26.4062C24.8986 72.6563 23.6719 73.8831 23.6719 75.3907V76.5617C23.6719 78.0693 24.8986 79.296 26.4062 79.296H53.5938C55.1014 79.296 56.3281 78.0693 56.3281 76.5617V75.3907C56.3281 73.8831 55.1014 72.6563 53.5938 72.6563H47.9461V64.3665H60.4688C61.1161 64.3665 61.6406 63.8418 61.6406 63.1946C61.6406 62.5474 61.1161 62.0228 60.4688 62.0228H4.29688C3.21984 62.0228 2.34375 61.1467 2.34375 60.0696V56.6009H77.6562V60.0696C77.6562 61.1467 76.7802 62.0228 75.7031 62.0228H65.9375C65.2902 62.0228 64.7656 62.5474 64.7656 63.1946C64.7656 63.8418 65.2902 64.3665 65.9375 64.3665H75.7031C78.0725 64.3665 80 62.439 80 60.0696V11.4035C80 9.4651 78.4228 7.88791 76.4844 7.88791ZM53.5938 75.0003C53.8092 75.0003 53.9844 75.1756 53.9844 75.3909V76.5618C53.9844 76.7771 53.8092 76.9524 53.5938 76.9524H26.4062C26.1908 76.9524 26.0156 76.7771 26.0156 76.5618V75.3909C26.0156 75.1756 26.1908 75.0003 26.4062 75.0003H53.5938ZM34.3977 64.3668H45.6025V72.6567H34.3977V64.3668ZM71.9084 3.09635C71.9753 3.02963 72.0837 3.02979 72.1503 3.09635L74.7155 5.6615C74.7822 5.72822 74.7822 5.83682 74.7155 5.90338L72.2678 8.35104L69.4608 5.544L71.9084 3.09635ZM67.8034 7.20135L70.6103 10.0084L69.793 10.8257L66.9861 8.01869L67.8034 7.20135ZM65.3288 9.67603L68.1358 12.4831L54.2684 26.3504L51.4614 23.5434L65.3288 9.67603ZM63.5938 20.3899C65.1877 20.3899 66.4844 21.6867 66.4844 23.2806C66.4844 24.8745 65.1877 26.1712 63.5938 26.1712C61.9998 26.1712 60.7031 24.8745 60.7031 23.2806C60.7031 23.262 60.7056 23.244 60.7059 23.2254L63.5391 20.3928C63.5573 20.3924 63.5753 20.3899 63.5938 20.3899ZM52.2334 27.6301L48.7652 29.0467L50.1817 25.5784L52.2334 27.6301ZM77.6562 54.2574H2.34375V11.4035C2.34375 10.7574 2.86937 10.2317 3.51562 10.2317H61.4589L59.672 12.0185H19.8438C19.1964 12.0185 18.6719 12.5432 18.6719 13.1904C18.6719 13.8376 19.1964 14.3623 19.8438 14.3623H57.3284L49.0627 22.6285C48.8291 22.8642 48.6464 23.1392 48.5206 23.447L45.903 29.8557C45.6628 30.4443 45.7981 31.1151 46.2477 31.5645C46.5494 31.8662 46.9506 32.0262 47.3598 32.0262C47.5605 32.0262 47.7628 31.9878 47.9564 31.9088L54.365 29.2913C54.6641 29.1692 54.9316 28.9923 55.1628 28.7681L58.7278 25.2035C59.4958 27.1409 61.3864 28.5151 63.5939 28.5151C66.4802 28.5151 68.8283 26.167 68.8283 23.2807C68.8283 21.0735 67.4544 19.1831 65.5173 18.4149L69.5703 14.3624H73.5256V50.127H72.9045L68.6577 42.7712C68.3342 42.2106 67.617 42.0185 67.0569 42.3423C66.4964 42.6659 66.3044 43.3826 66.628 43.9431L70.1983 50.127H53.828L52.0722 47.0859L60.2573 32.9088L63.8934 39.207C64.2172 39.7674 64.9339 39.9596 65.4942 39.6359C66.0547 39.3123 66.2467 38.5956 65.9231 38.0351L62.0439 31.3162C61.6709 30.6703 61.0031 30.2846 60.2572 30.2846C59.5112 30.2846 58.8433 30.6703 58.4703 31.3162L50.7188 44.7423L40.7728 27.5156C40.3998 26.8696 39.732 26.484 38.9859 26.484C38.2402 26.484 37.5722 26.8696 37.1992 27.5156L34.5569 32.0923V19.5309C34.5569 18.0232 33.3302 16.7965 31.8225 16.7965H11.7188C10.2111 16.7965 8.98438 18.0232 8.98438 19.5309V45.1559C8.98438 46.2329 9.86047 47.109 10.9375 47.109H25.8873L24.1448 50.1271H6.47453V14.3623H14.375C15.0223 14.3623 15.5469 13.8376 15.5469 13.1904C15.5469 12.5432 15.0223 12.0185 14.375 12.0185H6.08391C5.00688 12.0185 4.13078 12.8946 4.13078 13.9717V50.5174C4.13078 51.5945 5.00688 52.4706 6.08391 52.4706H73.9163C74.9933 52.4706 75.8694 51.5945 75.8694 50.5174V13.9717C75.8694 12.8946 74.9933 12.0185 73.9163 12.0185H71.9144L73.7016 10.2317H76.4844C77.1306 10.2317 77.6562 10.7574 77.6562 11.4035V54.2574ZM32.2136 26.0209V44.7649H11.3281V26.0209H32.2136ZM11.3281 23.6771V19.5306C11.3281 19.3153 11.5033 19.1399 11.7188 19.1399H31.823C32.0384 19.1399 32.2136 19.3153 32.2136 19.5306V23.6771H11.3281ZM28.5938 47.1087H32.6042C33.6813 47.1087 34.5573 46.2326 34.5573 45.1556V42.6732C34.8505 42.8138 35.1769 42.8899 35.5188 42.8899C36.3188 42.8899 37.035 42.4762 37.4348 41.7835L39.4292 38.3293C39.4895 38.2249 39.5817 38.2029 39.6481 38.2029C39.7148 38.2029 39.807 38.2249 39.8672 38.3293L41.0967 40.4589C41.4967 41.1518 42.2131 41.5654 43.0133 41.5654C43.8133 41.5654 44.5297 41.1518 44.9295 40.459L45.2348 39.9303L51.1217 50.1267H26.8513L28.5938 47.1087ZM34.5573 38.7504V36.7795L38.9866 29.1081L43.8816 37.5865L43.0131 39.0906L41.8969 37.1573C41.4275 36.3443 40.5869 35.859 39.648 35.859C38.7092 35.859 37.8686 36.3443 37.3992 37.1573L35.5183 40.4151L34.5573 38.7504Z" fill="black"/>
</g>
<defs>
<clipPath id="clip0">
<rect width="80" height="80" fill="white"/>
</clipPath>
</defs>
</svg>
