<svg width="80" height="80" viewBox="0 0 80 80" fill="none" xmlns="http://www.w3.org/2000/svg">
<g clip-path="url(#clip0)">
<path d="M78.8281 70.1412H73.7373V27.4749C73.7373 24.7568 71.5261 22.5455 68.808 22.5455H53.7783C53.1311 22.5455 52.6064 23.0702 52.6064 23.7174C52.6064 24.3646 53.1311 24.8893 53.7783 24.8893H68.808C70.2337 24.8893 71.3936 26.0493 71.3936 27.4749V70.1413H67.3825C67.443 69.6988 67.4747 69.2535 67.4747 68.8082C67.4747 63.3276 63.0158 58.8687 57.5352 58.8687C56.7983 58.8687 56.0625 58.9529 55.3372 59.1196C54.0728 56.6833 51.5542 55.111 48.7677 55.111C47.8586 55.111 46.9756 55.2768 46.1444 55.5988C45.803 52.5107 43.1777 50.1008 40 50.1008C36.8223 50.1008 34.197 52.5107 33.8556 55.5988C33.0244 55.2768 32.1414 55.111 31.2323 55.111C28.4458 55.111 25.927 56.6833 24.6628 59.1196C23.9373 58.9527 23.2017 58.8687 22.4648 58.8687C16.9841 58.8687 12.5253 63.3276 12.5253 68.8082C12.5253 69.2537 12.557 69.6988 12.6175 70.1413H8.60641V27.4749C8.60641 26.0491 9.76625 24.8893 11.192 24.8893H26.2222C26.8694 24.8893 27.3941 24.3646 27.3941 23.7174C27.3941 23.0702 26.8694 22.5455 26.2222 22.5455H11.192C8.47391 22.5455 6.26266 24.7569 6.26266 27.4749V70.1413H1.17188C0.524687 70.1413 0 70.666 0 71.3132V73.8182C0 75.8457 1.64953 77.4951 3.67687 77.4951H76.3231C78.3506 77.4951 80 75.8455 80 73.8182V71.3132C80 70.6658 79.4753 70.1412 78.8281 70.1412ZM77.6562 73.8182C77.6562 74.5533 77.0581 75.1513 76.3231 75.1513H3.67687C2.94172 75.1513 2.34375 74.5532 2.34375 73.8182V72.4851H17.4542C18.1014 72.4851 18.6261 71.9604 18.6261 71.3132C18.6261 70.666 18.1014 70.1413 17.4542 70.1413H14.9889C14.9094 69.6996 14.8689 69.2537 14.8689 68.8082C14.8689 64.6199 18.2764 61.2124 22.4647 61.2124C23.2989 61.2124 24.1342 61.3552 24.9475 61.6368C25.242 61.7388 25.5648 61.7193 25.845 61.5827C26.125 61.446 26.3391 61.2035 26.44 60.9087C27.1464 58.8429 29.0723 57.4549 31.2325 57.4549C32.417 57.4549 33.542 57.8741 34.4861 58.6674C34.8847 59.0023 35.4562 59.0341 35.8895 58.7455C36.3228 58.4569 36.5137 57.9173 36.3584 57.4205C36.2244 56.9915 36.1619 56.6301 36.1619 56.283C36.1619 54.1666 37.8838 52.4449 40 52.4449C42.1162 52.4449 43.8381 54.1668 43.8381 56.283C43.8381 56.6301 43.7756 56.9915 43.6416 57.4205C43.4863 57.9174 43.6773 58.4571 44.1105 58.7455C44.5438 59.034 45.1153 59.0023 45.5139 58.6674C46.458 57.8743 47.5831 57.4549 48.7675 57.4549C50.9277 57.4549 52.8536 58.8429 53.56 60.9087C53.6609 61.2035 53.875 61.446 54.155 61.5827C54.4352 61.7194 54.7581 61.739 55.0525 61.6368C55.8658 61.3552 56.7009 61.2124 57.5353 61.2124C61.7238 61.2124 65.1311 64.6199 65.1311 68.8082C65.1311 69.2537 65.0905 69.6996 65.0111 70.1413H22.4652C21.818 70.1413 21.2933 70.666 21.2933 71.3132C21.2933 71.9604 21.818 72.4851 22.4652 72.4851H77.6562V73.8182Z" fill="black"/>
<path d="M24.9404 36.9522C24.2036 37.8363 23.7979 38.9571 23.7979 40.108V43.7577C23.7979 44.1743 24.0191 44.5596 24.3788 44.7697C24.5613 44.8763 24.7655 44.9296 24.9697 44.9296C25.1683 44.9296 25.3669 44.8793 25.5457 44.7783L33.891 40.0694C34.2089 40.65 34.5461 41.2213 34.9022 41.7821L33.8532 45.9785C33.7655 46.3286 33.8443 46.6994 34.0663 46.984C34.2883 47.2685 34.6291 47.4347 34.99 47.4347H45.0102C45.3711 47.4347 45.7118 47.2685 45.9339 46.984C46.156 46.6996 46.2347 46.3286 46.1471 45.9785L45.098 41.7821C45.4541 41.2213 45.7913 40.6502 46.1093 40.0694L54.4546 44.7783C54.6335 44.8793 54.8319 44.9296 55.0305 44.9296C55.2347 44.9296 55.4389 44.8761 55.6214 44.7697C55.9811 44.5597 56.2024 44.1744 56.2024 43.7577V40.108C56.2024 38.9571 55.7966 37.8363 55.0599 36.9522L49.4968 30.2786C49.7897 28.5379 49.9397 26.763 49.9397 24.9699C49.9397 20.6963 49.1124 16.5654 47.4807 12.6921C45.9069 8.95645 43.6668 5.64239 40.8224 2.84192C40.3663 2.39286 39.6343 2.39286 39.1782 2.84192C36.3338 5.64224 34.0936 8.9563 32.5199 12.6921C30.8882 16.5655 30.0608 20.6963 30.0608 24.9699C30.0608 26.7602 30.2104 28.5324 30.5024 30.2705L24.9404 36.9522ZM26.1416 41.7508V40.108C26.1416 39.5043 26.3544 38.9165 26.7408 38.4527L31.1333 33.1818C31.5722 34.8236 32.1427 36.4249 32.8421 37.9702L26.1416 41.7508ZM36.4908 45.0908L37.1574 42.4246H42.8425L43.5091 45.0908H36.4908ZM53.2589 38.4527C53.6454 38.9165 53.8582 39.5043 53.8582 40.108V41.7508L47.1577 37.97C47.8569 36.4247 48.4275 34.8236 48.8664 33.1816L53.2589 38.4527ZM39.9999 5.35786C41.9678 7.47333 43.591 9.89896 44.8246 12.5254H35.1752C36.4088 9.89896 38.0319 7.47333 39.9999 5.35786ZM34.1986 14.869H45.801C46.9727 18.0635 47.5955 21.4883 47.5955 24.9697C47.5955 30.3585 46.1458 35.5686 43.3968 40.0807H36.6029C33.8538 35.5686 32.4041 30.3585 32.4041 24.9697C32.4041 21.4883 33.0271 18.0636 34.1986 14.869Z" fill="black"/>
<path d="M44.9296 23.7172C44.9296 20.9991 42.7183 18.7878 40.0002 18.7878C37.2821 18.7878 35.0708 20.9992 35.0708 23.7172C35.0708 26.4352 37.2821 28.6466 40.0002 28.6466C42.7183 28.6466 44.9296 26.4353 44.9296 23.7172ZM37.4146 23.7172C37.4146 22.2914 38.5744 21.1316 40.0002 21.1316C41.426 21.1316 42.5858 22.2916 42.5858 23.7172C42.5858 25.1428 41.426 26.3028 40.0002 26.3028C38.5744 26.3028 37.4146 25.143 37.4146 23.7172Z" fill="#2F44FF"/>
<rect x="61" y="43" width="12" height="2" rx="1" fill="black"/>
<rect x="8" y="53" width="12" height="2" rx="1" fill="black"/>
<rect x="58" y="47" width="15" height="2" rx="1" fill="black"/>
<rect x="7" y="49" width="15" height="2" rx="1" fill="black"/>
</g>
<defs>
<clipPath id="clip0">
<rect width="80" height="80" fill="white"/>
</clipPath>
</defs>
</svg>
