<svg width="335" height="335" viewBox="0 0 335 335" fill="none" xmlns="http://www.w3.org/2000/svg">
<circle cx="167.5" cy="167.5" r="167.5" fill="#2F44FF"/>
<path d="M72.196 166.264C70.6267 166.264 69.204 165.927 67.928 165.252C66.6667 164.563 65.6693 163.617 64.936 162.414C64.2173 161.197 63.858 159.825 63.858 158.3C63.858 156.775 64.2173 155.411 64.936 154.208C65.6693 152.991 66.6667 152.045 67.928 151.37C69.204 150.681 70.634 150.336 72.218 150.336C73.5527 150.336 74.7553 150.571 75.826 151.04C76.9113 151.509 77.8207 152.184 78.554 153.064L76.266 155.176C75.2247 153.973 73.934 153.372 72.394 153.372C71.4407 153.372 70.59 153.585 69.842 154.01C69.094 154.421 68.5073 155 68.082 155.748C67.6713 156.496 67.466 157.347 67.466 158.3C67.466 159.253 67.6713 160.104 68.082 160.852C68.5073 161.6 69.094 162.187 69.842 162.612C70.59 163.023 71.4407 163.228 72.394 163.228C73.934 163.228 75.2247 162.619 76.266 161.402L78.554 163.514C77.8207 164.409 76.9113 165.091 75.826 165.56C74.7407 166.029 73.5307 166.264 72.196 166.264ZM92.1629 166V158.916L88.6209 164.856H87.1689L83.7149 158.894V166H80.6129V154.164H84.1989L87.9829 161.006L92.0089 154.164H95.2209L95.2649 166H92.1629ZM104.096 166.176C102.85 166.176 101.728 165.919 100.73 165.406C99.7477 164.878 98.9777 164.152 98.4203 163.228C97.863 162.304 97.5843 161.255 97.5843 160.082C97.5843 158.909 97.863 157.86 98.4203 156.936C98.9777 156.012 99.7477 155.293 100.73 154.78C101.728 154.252 102.85 153.988 104.096 153.988C105.343 153.988 106.458 154.252 107.44 154.78C108.423 155.293 109.193 156.012 109.75 156.936C110.308 157.86 110.586 158.909 110.586 160.082C110.586 161.255 110.308 162.304 109.75 163.228C109.193 164.152 108.423 164.878 107.44 165.406C106.458 165.919 105.343 166.176 104.096 166.176ZM104.096 163.36C104.976 163.36 105.695 163.067 106.252 162.48C106.824 161.879 107.11 161.079 107.11 160.082C107.11 159.085 106.824 158.293 106.252 157.706C105.695 157.105 104.976 156.804 104.096 156.804C103.216 156.804 102.49 157.105 101.918 157.706C101.346 158.293 101.06 159.085 101.06 160.082C101.06 161.079 101.346 161.879 101.918 162.48C102.49 163.067 103.216 163.36 104.096 163.36ZM122.461 156.98H118.457V166H115.047V156.98H111.043V154.164H122.461V156.98ZM131.265 153.988C132.365 153.988 133.362 154.245 134.257 154.758C135.166 155.257 135.877 155.968 136.391 156.892C136.904 157.801 137.161 158.865 137.161 160.082C137.161 161.299 136.904 162.37 136.391 163.294C135.877 164.203 135.166 164.915 134.257 165.428C133.362 165.927 132.365 166.176 131.265 166.176C129.754 166.176 128.566 165.699 127.701 164.746V170.268H124.269V154.164H127.547V155.528C128.397 154.501 129.637 153.988 131.265 153.988ZM130.671 163.36C131.551 163.36 132.269 163.067 132.827 162.48C133.399 161.879 133.685 161.079 133.685 160.082C133.685 159.085 133.399 158.293 132.827 157.706C132.269 157.105 131.551 156.804 130.671 156.804C129.791 156.804 129.065 157.105 128.493 157.706C127.935 158.293 127.657 159.085 127.657 160.082C127.657 161.079 127.935 161.879 128.493 162.48C129.065 163.067 129.791 163.36 130.671 163.36ZM151.072 160.126C151.072 160.17 151.05 160.478 151.006 161.05H142.052C142.213 161.783 142.595 162.363 143.196 162.788C143.797 163.213 144.545 163.426 145.44 163.426C146.056 163.426 146.599 163.338 147.068 163.162C147.552 162.971 147.999 162.678 148.41 162.282L150.236 164.262C149.121 165.538 147.493 166.176 145.352 166.176C144.017 166.176 142.837 165.919 141.81 165.406C140.783 164.878 139.991 164.152 139.434 163.228C138.877 162.304 138.598 161.255 138.598 160.082C138.598 158.923 138.869 157.882 139.412 156.958C139.969 156.019 140.725 155.293 141.678 154.78C142.646 154.252 143.724 153.988 144.912 153.988C146.071 153.988 147.119 154.237 148.058 154.736C148.997 155.235 149.73 155.953 150.258 156.892C150.801 157.816 151.072 158.894 151.072 160.126ZM144.934 156.584C144.157 156.584 143.504 156.804 142.976 157.244C142.448 157.684 142.125 158.285 142.008 159.048H147.838C147.721 158.3 147.398 157.706 146.87 157.266C146.342 156.811 145.697 156.584 144.934 156.584ZM163.239 156.98H159.235V166H155.825V156.98H151.821V154.164H163.239V156.98ZM171.47 157.948C173.01 157.963 174.191 158.315 175.012 159.004C175.833 159.679 176.244 160.639 176.244 161.886C176.244 163.191 175.782 164.211 174.858 164.944C173.949 165.663 172.665 166.022 171.008 166.022L165.068 166V154.164H168.478V157.948H171.47ZM170.7 163.58C171.36 163.595 171.866 163.455 172.218 163.162C172.57 162.869 172.746 162.429 172.746 161.842C172.746 161.27 172.57 160.852 172.218 160.588C171.881 160.324 171.375 160.185 170.7 160.17L168.478 160.148V163.58H170.7ZM76.42 181.164V193H72.988V183.98H68.06V193H64.65V181.164H76.42ZM86.6845 180.988C87.7845 180.988 88.7819 181.245 89.6765 181.758C90.5859 182.257 91.2972 182.968 91.8105 183.892C92.3239 184.801 92.5805 185.865 92.5805 187.082C92.5805 188.299 92.3239 189.37 91.8105 190.294C91.2972 191.203 90.5859 191.915 89.6765 192.428C88.7819 192.927 87.7845 193.176 86.6845 193.176C85.1739 193.176 83.9859 192.699 83.1205 191.746V197.268H79.6885V181.164H82.9665V182.528C83.8172 181.501 85.0565 180.988 86.6845 180.988ZM86.0905 190.36C86.9705 190.36 87.6892 190.067 88.2465 189.48C88.8185 188.879 89.1045 188.079 89.1045 187.082C89.1045 186.085 88.8185 185.293 88.2465 184.706C87.6892 184.105 86.9705 183.804 86.0905 183.804C85.2105 183.804 84.4845 184.105 83.9125 184.706C83.3552 185.293 83.0765 186.085 83.0765 187.082C83.0765 188.079 83.3552 188.879 83.9125 189.48C84.4845 190.067 85.2105 190.36 86.0905 190.36ZM106.492 187.126C106.492 187.17 106.47 187.478 106.426 188.05H97.4719C97.6333 188.783 98.0146 189.363 98.6159 189.788C99.2173 190.213 99.9653 190.426 100.86 190.426C101.476 190.426 102.019 190.338 102.488 190.162C102.972 189.971 103.419 189.678 103.83 189.282L105.656 191.262C104.541 192.538 102.913 193.176 100.772 193.176C99.4373 193.176 98.2566 192.919 97.2299 192.406C96.2033 191.878 95.4113 191.152 94.8539 190.228C94.2966 189.304 94.0179 188.255 94.0179 187.082C94.0179 185.923 94.2893 184.882 94.8319 183.958C95.3893 183.019 96.1446 182.293 97.0979 181.78C98.0659 181.252 99.1439 180.988 100.332 180.988C101.491 180.988 102.539 181.237 103.478 181.736C104.417 182.235 105.15 182.953 105.678 183.892C106.221 184.816 106.492 185.894 106.492 187.126ZM100.354 183.584C99.5766 183.584 98.9239 183.804 98.3959 184.244C97.8679 184.684 97.5453 185.285 97.4279 186.048H103.258C103.141 185.3 102.818 184.706 102.29 184.266C101.762 183.811 101.117 183.584 100.354 183.584ZM116.65 186.84C117.354 187.06 117.897 187.397 118.278 187.852C118.674 188.307 118.872 188.849 118.872 189.48C118.872 190.228 118.616 190.888 118.102 191.46C117.589 192.017 116.885 192.45 115.99 192.758C115.096 193.066 114.084 193.22 112.954 193.22C112.03 193.22 111.121 193.125 110.226 192.934C109.332 192.743 108.503 192.457 107.74 192.076L108.664 189.678C109.911 190.279 111.29 190.58 112.8 190.58C113.607 190.58 114.238 190.463 114.692 190.228C115.162 189.979 115.396 189.634 115.396 189.194C115.396 188.813 115.235 188.527 114.912 188.336C114.59 188.131 114.12 188.028 113.504 188.028H111.084V185.894H113.196C113.798 185.894 114.26 185.799 114.582 185.608C114.905 185.417 115.066 185.139 115.066 184.772C115.066 184.391 114.861 184.097 114.45 183.892C114.054 183.687 113.482 183.584 112.734 183.584C111.59 183.584 110.344 183.855 108.994 184.398L108.158 182.022C109.801 181.303 111.4 180.944 112.954 180.944C114.025 180.944 114.978 181.076 115.814 181.34C116.665 181.604 117.332 181.993 117.816 182.506C118.3 183.005 118.542 183.591 118.542 184.266C118.542 184.823 118.374 185.329 118.036 185.784C117.699 186.224 117.237 186.576 116.65 186.84ZM132.875 187.126C132.875 187.17 132.853 187.478 132.809 188.05H123.855C124.016 188.783 124.397 189.363 124.999 189.788C125.6 190.213 126.348 190.426 127.243 190.426C127.859 190.426 128.401 190.338 128.871 190.162C129.355 189.971 129.802 189.678 130.213 189.282L132.039 191.262C130.924 192.538 129.296 193.176 127.155 193.176C125.82 193.176 124.639 192.919 123.613 192.406C122.586 191.878 121.794 191.152 121.237 190.228C120.679 189.304 120.401 188.255 120.401 187.082C120.401 185.923 120.672 184.882 121.215 183.958C121.772 183.019 122.527 182.293 123.481 181.78C124.449 181.252 125.527 180.988 126.715 180.988C127.873 180.988 128.922 181.237 129.861 181.736C130.799 182.235 131.533 182.953 132.061 183.892C132.603 184.816 132.875 185.894 132.875 187.126ZM126.737 183.584C125.959 183.584 125.307 183.804 124.779 184.244C124.251 184.684 123.928 185.285 123.811 186.048H129.641C129.523 185.3 129.201 184.706 128.673 184.266C128.145 183.811 127.499 183.584 126.737 183.584ZM135.505 181.164H138.915V185.784H144.063V181.164H147.495V193H144.063V188.578H138.915V193H135.505V181.164ZM160.725 183.98H156.721V193H153.311V183.98H149.307V181.164H160.725V183.98ZM167.152 180.988C168.986 180.988 170.394 181.428 171.376 182.308C172.359 183.173 172.85 184.486 172.85 186.246V193H169.638V191.526C168.993 192.626 167.79 193.176 166.03 193.176C165.121 193.176 164.329 193.022 163.654 192.714C162.994 192.406 162.488 191.981 162.136 191.438C161.784 190.895 161.608 190.279 161.608 189.59C161.608 188.49 162.019 187.625 162.84 186.994C163.676 186.363 164.96 186.048 166.69 186.048H169.418C169.418 185.3 169.191 184.728 168.736 184.332C168.282 183.921 167.6 183.716 166.69 183.716C166.06 183.716 165.436 183.819 164.82 184.024C164.219 184.215 163.706 184.479 163.28 184.816L162.048 182.418C162.694 181.963 163.464 181.611 164.358 181.362C165.268 181.113 166.199 180.988 167.152 180.988ZM166.888 190.866C167.475 190.866 167.996 190.734 168.45 190.47C168.905 190.191 169.228 189.788 169.418 189.26V188.05H167.064C165.656 188.05 164.952 188.512 164.952 189.436C164.952 189.876 165.121 190.228 165.458 190.492C165.81 190.741 166.287 190.866 166.888 190.866ZM189.164 190.184V195.596H185.974V193H175.832V181.164H179.242V190.184H184.016V181.164H187.448V190.184H189.164ZM191.322 181.164H194.732V188.204L200.496 181.164H203.642V193H200.232V185.96L194.49 193H191.322V181.164ZM218.139 180.988C219.342 180.988 220.42 181.252 221.373 181.78C222.326 182.293 223.074 183.012 223.617 183.936C224.16 184.86 224.431 185.909 224.431 187.082C224.431 188.255 224.16 189.304 223.617 190.228C223.074 191.152 222.326 191.878 221.373 192.406C220.42 192.919 219.342 193.176 218.139 193.176C217.098 193.176 216.144 192.985 215.279 192.604C214.414 192.208 213.695 191.658 213.123 190.954C212.551 190.235 212.17 189.414 211.979 188.49H210.351V193H206.941V181.164H210.351V185.52H212.001C212.338 184.141 213.057 183.041 214.157 182.22C215.257 181.399 216.584 180.988 218.139 180.988ZM218.139 190.36C218.975 190.36 219.664 190.067 220.207 189.48C220.764 188.879 221.043 188.079 221.043 187.082C221.043 186.07 220.764 185.271 220.207 184.684C219.664 184.097 218.975 183.804 218.139 183.804C217.288 183.804 216.584 184.097 216.027 184.684C215.484 185.271 215.213 186.07 215.213 187.082C215.213 188.079 215.484 188.879 216.027 189.48C216.584 190.067 217.288 190.36 218.139 190.36Z" fill="white"/>
<path fill-rule="evenodd" clip-rule="evenodd" d="M269.417 152H248.752C248.067 152 247.41 152.272 246.926 152.757C246.442 153.241 246.169 153.898 246.169 154.583C246.169 155.268 246.442 155.925 246.926 156.41C247.41 156.894 248.067 157.166 248.752 157.166H263.181L241.758 178.585C241.272 179.07 241 179.728 241 180.414C241 181.1 241.272 181.757 241.758 182.242C242.243 182.728 242.9 183 243.586 183C244.272 183 244.93 182.728 245.415 182.242L266.834 160.819V175.248C266.834 175.933 267.106 176.59 267.59 177.074C268.075 177.558 268.732 177.831 269.417 177.831C270.102 177.831 270.759 177.558 271.243 177.074C271.728 176.59 272 175.933 272 175.248V154.583C272 153.898 271.728 153.241 271.243 152.757C270.759 152.272 270.102 152 269.417 152Z" fill="white"/>
</svg>
