<svg width="550" height="550" viewBox="0 0 550 550" fill="none" xmlns="http://www.w3.org/2000/svg">
<circle cx="275" cy="275" r="275" fill="#2F44FF"/>
<path d="M141.54 267.36C139.4 267.36 137.46 266.9 135.72 265.98C134 265.04 132.64 263.75 131.64 262.11C130.66 260.45 130.17 258.58 130.17 256.5C130.17 254.42 130.66 252.56 131.64 250.92C132.64 249.26 134 247.97 135.72 247.05C137.46 246.11 139.41 245.64 141.57 245.64C143.39 245.64 145.03 245.96 146.49 246.6C147.97 247.24 149.21 248.16 150.21 249.36L147.09 252.24C145.67 250.6 143.91 249.78 141.81 249.78C140.51 249.78 139.35 250.07 138.33 250.65C137.31 251.21 136.51 252 135.93 253.02C135.37 254.04 135.09 255.2 135.09 256.5C135.09 257.8 135.37 258.96 135.93 259.98C136.51 261 137.31 261.8 138.33 262.38C139.35 262.94 140.51 263.22 141.81 263.22C143.91 263.22 145.67 262.39 147.09 260.73L150.21 263.61C149.21 264.83 147.97 265.76 146.49 266.4C145.01 267.04 143.36 267.36 141.54 267.36ZM168.768 267V257.34L163.938 265.44H161.958L157.248 257.31V267H153.018V250.86H157.908L163.068 260.19L168.558 250.86H172.938L172.998 267H168.768ZM185.04 267.24C183.34 267.24 181.81 266.89 180.45 266.19C179.11 265.47 178.06 264.48 177.3 263.22C176.54 261.96 176.16 260.53 176.16 258.93C176.16 257.33 176.54 255.9 177.3 254.64C178.06 253.38 179.11 252.4 180.45 251.7C181.81 250.98 183.34 250.62 185.04 250.62C186.74 250.62 188.26 250.98 189.6 251.7C190.94 252.4 191.99 253.38 192.75 254.64C193.51 255.9 193.89 257.33 193.89 258.93C193.89 260.53 193.51 261.96 192.75 263.22C191.99 264.48 190.94 265.47 189.6 266.19C188.26 266.89 186.74 267.24 185.04 267.24ZM185.04 263.4C186.24 263.4 187.22 263 187.98 262.2C188.76 261.38 189.15 260.29 189.15 258.93C189.15 257.57 188.76 256.49 187.98 255.69C187.22 254.87 186.24 254.46 185.04 254.46C183.84 254.46 182.85 254.87 182.07 255.69C181.29 256.49 180.9 257.57 180.9 258.93C180.9 260.29 181.29 261.38 182.07 262.2C182.85 263 183.84 263.4 185.04 263.4ZM210.083 254.7H204.623V267H199.973V254.7H194.513V250.86H210.083V254.7ZM222.088 250.62C223.588 250.62 224.948 250.97 226.168 251.67C227.408 252.35 228.378 253.32 229.078 254.58C229.778 255.82 230.128 257.27 230.128 258.93C230.128 260.59 229.778 262.05 229.078 263.31C228.378 264.55 227.408 265.52 226.168 266.22C224.948 266.9 223.588 267.24 222.088 267.24C220.028 267.24 218.408 266.59 217.228 265.29V272.82H212.548V250.86H217.018V252.72C218.178 251.32 219.868 250.62 222.088 250.62ZM221.278 263.4C222.478 263.4 223.458 263 224.218 262.2C224.998 261.38 225.388 260.29 225.388 258.93C225.388 257.57 224.998 256.49 224.218 255.69C223.458 254.87 222.478 254.46 221.278 254.46C220.078 254.46 219.088 254.87 218.308 255.69C217.548 256.49 217.168 257.57 217.168 258.93C217.168 260.29 217.548 261.38 218.308 262.2C219.088 263 220.078 263.4 221.278 263.4ZM249.098 258.99C249.098 259.05 249.068 259.47 249.008 260.25H236.798C237.018 261.25 237.538 262.04 238.358 262.62C239.178 263.2 240.198 263.49 241.418 263.49C242.258 263.49 242.998 263.37 243.638 263.13C244.298 262.87 244.908 262.47 245.468 261.93L247.958 264.63C246.438 266.37 244.218 267.24 241.298 267.24C239.478 267.24 237.868 266.89 236.468 266.19C235.068 265.47 233.988 264.48 233.228 263.22C232.468 261.96 232.088 260.53 232.088 258.93C232.088 257.35 232.458 255.93 233.198 254.67C233.958 253.39 234.988 252.4 236.288 251.7C237.608 250.98 239.078 250.62 240.698 250.62C242.278 250.62 243.708 250.96 244.988 251.64C246.268 252.32 247.268 253.3 247.988 254.58C248.728 255.84 249.098 257.31 249.098 258.99ZM240.728 254.16C239.668 254.16 238.778 254.46 238.058 255.06C237.338 255.66 236.898 256.48 236.738 257.52H244.688C244.528 256.5 244.088 255.69 243.368 255.09C242.648 254.47 241.768 254.16 240.728 254.16ZM265.689 254.7H260.229V267H255.579V254.7H250.119V250.86H265.689V254.7ZM276.914 256.02C279.014 256.04 280.624 256.52 281.744 257.46C282.864 258.38 283.424 259.69 283.424 261.39C283.424 263.17 282.794 264.56 281.534 265.56C280.294 266.54 278.544 267.03 276.284 267.03L268.184 267V250.86H272.834V256.02H276.914ZM275.864 263.7C276.764 263.72 277.454 263.53 277.934 263.13C278.414 262.73 278.654 262.13 278.654 261.33C278.654 260.55 278.414 259.98 277.934 259.62C277.474 259.26 276.784 259.07 275.864 259.05L272.834 259.02V263.7H275.864ZM147.3 287.86V304H142.62V291.7H135.9V304H131.25V287.86H147.3ZM161.297 287.62C162.797 287.62 164.157 287.97 165.377 288.67C166.617 289.35 167.587 290.32 168.287 291.58C168.987 292.82 169.337 294.27 169.337 295.93C169.337 297.59 168.987 299.05 168.287 300.31C167.587 301.55 166.617 302.52 165.377 303.22C164.157 303.9 162.797 304.24 161.297 304.24C159.237 304.24 157.617 303.59 156.437 302.29V309.82H151.757V287.86H156.227V289.72C157.387 288.32 159.077 287.62 161.297 287.62ZM160.487 300.4C161.687 300.4 162.667 300 163.427 299.2C164.207 298.38 164.597 297.29 164.597 295.93C164.597 294.57 164.207 293.49 163.427 292.69C162.667 291.87 161.687 291.46 160.487 291.46C159.287 291.46 158.297 291.87 157.517 292.69C156.757 293.49 156.377 294.57 156.377 295.93C156.377 297.29 156.757 298.38 157.517 299.2C158.297 300 159.287 300.4 160.487 300.4ZM188.307 295.99C188.307 296.05 188.277 296.47 188.217 297.25H176.007C176.227 298.25 176.747 299.04 177.567 299.62C178.387 300.2 179.407 300.49 180.627 300.49C181.467 300.49 182.207 300.37 182.847 300.13C183.507 299.87 184.117 299.47 184.677 298.93L187.167 301.63C185.647 303.37 183.427 304.24 180.507 304.24C178.687 304.24 177.077 303.89 175.677 303.19C174.277 302.47 173.197 301.48 172.437 300.22C171.677 298.96 171.297 297.53 171.297 295.93C171.297 294.35 171.667 292.93 172.407 291.67C173.167 290.39 174.197 289.4 175.497 288.7C176.817 287.98 178.287 287.62 179.907 287.62C181.487 287.62 182.917 287.96 184.197 288.64C185.477 289.32 186.477 290.3 187.197 291.58C187.937 292.84 188.307 294.31 188.307 295.99ZM179.937 291.16C178.877 291.16 177.987 291.46 177.267 292.06C176.547 292.66 176.107 293.48 175.947 294.52H183.897C183.737 293.5 183.297 292.69 182.577 292.09C181.857 291.47 180.977 291.16 179.937 291.16ZM202.159 295.6C203.119 295.9 203.859 296.36 204.379 296.98C204.919 297.6 205.189 298.34 205.189 299.2C205.189 300.22 204.839 301.12 204.139 301.9C203.439 302.66 202.479 303.25 201.259 303.67C200.039 304.09 198.659 304.3 197.119 304.3C195.859 304.3 194.619 304.17 193.399 303.91C192.179 303.65 191.049 303.26 190.009 302.74L191.269 299.47C192.969 300.29 194.849 300.7 196.909 300.7C198.009 300.7 198.869 300.54 199.489 300.22C200.129 299.88 200.449 299.41 200.449 298.81C200.449 298.29 200.229 297.9 199.789 297.64C199.349 297.36 198.709 297.22 197.869 297.22H194.569V294.31H197.449C198.269 294.31 198.899 294.18 199.339 293.92C199.779 293.66 199.999 293.28 199.999 292.78C199.999 292.26 199.719 291.86 199.159 291.58C198.619 291.3 197.839 291.16 196.819 291.16C195.259 291.16 193.559 291.53 191.719 292.27L190.579 289.03C192.819 288.05 194.999 287.56 197.119 287.56C198.579 287.56 199.879 287.74 201.019 288.1C202.179 288.46 203.089 288.99 203.749 289.69C204.409 290.37 204.739 291.17 204.739 292.09C204.739 292.85 204.509 293.54 204.049 294.16C203.589 294.76 202.959 295.24 202.159 295.6ZM224.284 295.99C224.284 296.05 224.254 296.47 224.194 297.25H211.984C212.204 298.25 212.724 299.04 213.544 299.62C214.364 300.2 215.384 300.49 216.604 300.49C217.444 300.49 218.184 300.37 218.824 300.13C219.484 299.87 220.094 299.47 220.654 298.93L223.144 301.63C221.624 303.37 219.404 304.24 216.484 304.24C214.664 304.24 213.054 303.89 211.654 303.19C210.254 302.47 209.174 301.48 208.414 300.22C207.654 298.96 207.274 297.53 207.274 295.93C207.274 294.35 207.644 292.93 208.384 291.67C209.144 290.39 210.174 289.4 211.474 288.7C212.794 287.98 214.264 287.62 215.884 287.62C217.464 287.62 218.894 287.96 220.174 288.64C221.454 289.32 222.454 290.3 223.174 291.58C223.914 292.84 224.284 294.31 224.284 295.99ZM215.914 291.16C214.854 291.16 213.964 291.46 213.244 292.06C212.524 292.66 212.084 293.48 211.924 294.52H219.874C219.714 293.5 219.274 292.69 218.554 292.09C217.834 291.47 216.954 291.16 215.914 291.16ZM227.871 287.86H232.521V294.16H239.541V287.86H244.221V304H239.541V297.97H232.521V304H227.871V287.86ZM262.261 291.7H256.801V304H252.151V291.7H246.691V287.86H262.261V291.7ZM271.026 287.62C273.526 287.62 275.446 288.22 276.786 289.42C278.126 290.6 278.796 292.39 278.796 294.79V304H274.416V301.99C273.536 303.49 271.896 304.24 269.496 304.24C268.256 304.24 267.176 304.03 266.256 303.61C265.356 303.19 264.666 302.61 264.186 301.87C263.706 301.13 263.466 300.29 263.466 299.35C263.466 297.85 264.026 296.67 265.146 295.81C266.286 294.95 268.036 294.52 270.396 294.52H274.116C274.116 293.5 273.806 292.72 273.186 292.18C272.566 291.62 271.636 291.34 270.396 291.34C269.536 291.34 268.686 291.48 267.846 291.76C267.026 292.02 266.326 292.38 265.746 292.84L264.066 289.57C264.946 288.95 265.996 288.47 267.216 288.13C268.456 287.79 269.726 287.62 271.026 287.62ZM270.666 301.09C271.466 301.09 272.176 300.91 272.796 300.55C273.416 300.17 273.856 299.62 274.116 298.9V297.25H270.906C268.986 297.25 268.026 297.88 268.026 299.14C268.026 299.74 268.256 300.22 268.716 300.58C269.196 300.92 269.846 301.09 270.666 301.09ZM301.041 300.16V307.54H296.691V304H282.861V287.86H287.511V300.16H294.021V287.86H298.701V300.16H301.041ZM303.984 287.86H308.634V297.46L316.494 287.86H320.784V304H316.134V294.4L308.304 304H303.984V287.86ZM340.553 287.62C342.193 287.62 343.663 287.98 344.963 288.7C346.263 289.4 347.283 290.38 348.023 291.64C348.763 292.9 349.133 294.33 349.133 295.93C349.133 297.53 348.763 298.96 348.023 300.22C347.283 301.48 346.263 302.47 344.963 303.19C343.663 303.89 342.193 304.24 340.553 304.24C339.133 304.24 337.833 303.98 336.653 303.46C335.473 302.92 334.493 302.17 333.713 301.21C332.933 300.23 332.413 299.11 332.153 297.85H329.933V304H325.283V287.86H329.933V293.8H332.183C332.643 291.92 333.623 290.42 335.123 289.3C336.623 288.18 338.433 287.62 340.553 287.62ZM340.553 300.4C341.693 300.4 342.633 300 343.373 299.2C344.133 298.38 344.513 297.29 344.513 295.93C344.513 294.55 344.133 293.46 343.373 292.66C342.633 291.86 341.693 291.46 340.553 291.46C339.393 291.46 338.433 291.86 337.673 292.66C336.933 293.46 336.563 294.55 336.563 295.93C336.563 297.29 336.933 298.38 337.673 299.2C338.433 300 339.393 300.4 340.553 300.4Z" fill="white"/>
<path fill-rule="evenodd" clip-rule="evenodd" d="M416.834 250H383.504C382.399 250 381.339 250.439 380.558 251.22C379.777 252.002 379.338 253.061 379.338 254.166C379.338 255.271 379.777 256.331 380.558 257.112C381.339 257.894 382.399 258.332 383.504 258.332H406.776L372.222 292.879C371.439 293.661 371 294.722 371 295.829C371 296.935 371.439 297.996 372.222 298.778C373.004 299.561 374.065 300 375.171 300C376.278 300 377.339 299.561 378.121 298.778L412.668 264.224V287.496C412.668 288.601 413.106 289.661 413.888 290.442C414.669 291.223 415.729 291.662 416.834 291.662C417.939 291.662 418.998 291.223 419.78 290.442C420.561 289.661 421 288.601 421 287.496V254.166C421 253.061 420.561 252.002 419.78 251.22C418.998 250.439 417.939 250 416.834 250Z" fill="white"/>
</svg>
