<svg width="162" height="150" viewBox="0 0 162 150" fill="none" xmlns="http://www.w3.org/2000/svg">
<g clip-path="url(#clip0)">
<path d="M134.867 118.496C125.682 131.139 112.73 140.549 97.8673 145.378C83.0048 150.207 66.9951 150.207 52.1327 145.378C37.2703 140.549 24.3182 131.139 15.1327 118.496C5.94726 105.853 0.999997 90.6273 1 75C1 59.3727 5.94727 44.1466 15.1328 31.5039C24.3182 18.8612 37.2703 9.4509 52.1328 4.62181C66.9952 -0.207275 83.0049 -0.20727 97.8673 4.62183C112.73 9.45092 125.682 18.8612 134.867 31.5039" stroke="black" stroke-width="2" stroke-linecap="round"/>
<path d="M137 75.25H162M149.75 63L149.75 88" stroke="black" stroke-linecap="round" stroke-linejoin="round"/>
<path d="M31.7515 70.12C30.3648 70.12 29.1115 69.8133 27.9915 69.2C26.8848 68.5867 26.0115 67.74 25.3715 66.66C24.7448 65.5667 24.4315 64.3467 24.4315 63C24.4315 61.6533 24.7448 60.44 25.3715 59.36C26.0115 58.2667 26.8915 57.4133 28.0115 56.8C29.1315 56.1867 30.3848 55.88 31.7715 55.88C32.8115 55.88 33.7715 56.0533 34.6515 56.4C35.5315 56.7467 36.2782 57.2533 36.8915 57.92L35.9515 58.86C34.8582 57.7533 33.4782 57.2 31.8115 57.2C30.7048 57.2 29.6982 57.4533 28.7915 57.96C27.8848 58.4667 27.1715 59.16 26.6515 60.04C26.1448 60.92 25.8915 61.9067 25.8915 63C25.8915 64.0933 26.1448 65.08 26.6515 65.96C27.1715 66.84 27.8848 67.5333 28.7915 68.04C29.6982 68.5467 30.7048 68.8 31.8115 68.8C33.4915 68.8 34.8715 68.24 35.9515 67.12L36.8915 68.06C36.2782 68.7267 35.5248 69.24 34.6315 69.6C33.7515 69.9467 32.7915 70.12 31.7515 70.12ZM51.3679 59.48V70H50.0679V61.68L45.8079 68.72H45.1679L40.9079 61.66V70H39.6079V59.48H41.0479L45.5079 67.06L50.0479 59.48H51.3679ZM59.7487 70.1C58.7353 70.1 57.822 69.8733 57.0087 69.42C56.1953 68.9533 55.5553 68.3133 55.0887 67.5C54.622 66.6867 54.3887 65.7667 54.3887 64.74C54.3887 63.7133 54.622 62.7933 55.0887 61.98C55.5553 61.1667 56.1953 60.5333 57.0087 60.08C57.822 59.6267 58.7353 59.4 59.7487 59.4C60.762 59.4 61.6753 59.6267 62.4887 60.08C63.302 60.5333 63.9353 61.1667 64.3887 61.98C64.8553 62.7933 65.0887 63.7133 65.0887 64.74C65.0887 65.7667 64.8553 66.6867 64.3887 67.5C63.9353 68.3133 63.302 68.9533 62.4887 69.42C61.6753 69.8733 60.762 70.1 59.7487 70.1ZM59.7487 68.84C60.4953 68.84 61.162 68.6733 61.7487 68.34C62.3487 67.9933 62.8153 67.5067 63.1487 66.88C63.482 66.2533 63.6487 65.54 63.6487 64.74C63.6487 63.94 63.482 63.2267 63.1487 62.6C62.8153 61.9733 62.3487 61.4933 61.7487 61.16C61.162 60.8133 60.4953 60.64 59.7487 60.64C59.002 60.64 58.3287 60.8133 57.7287 61.16C57.142 61.4933 56.6753 61.9733 56.3287 62.6C55.9953 63.2267 55.8287 63.94 55.8287 64.74C55.8287 65.54 55.9953 66.2533 56.3287 66.88C56.6753 67.5067 57.142 67.9933 57.7287 68.34C58.3287 68.6733 59.002 68.84 59.7487 68.84ZM75.1329 60.74H71.1529V70H69.7329V60.74H65.7529V59.48H75.1329V60.74ZM82.606 59.4C83.5927 59.4 84.486 59.6267 85.286 60.08C86.086 60.52 86.7127 61.1467 87.166 61.96C87.6193 62.7733 87.846 63.7 87.846 64.74C87.846 65.7933 87.6193 66.7267 87.166 67.54C86.7127 68.3533 86.086 68.9867 85.286 69.44C84.4993 69.88 83.606 70.1 82.606 70.1C81.7527 70.1 80.9793 69.9267 80.286 69.58C79.606 69.22 79.046 68.7 78.606 68.02V73.88H77.186V59.48H78.546V61.56C78.9727 60.8667 79.5327 60.3333 80.226 59.96C80.9327 59.5867 81.726 59.4 82.606 59.4ZM82.506 68.84C83.2393 68.84 83.906 68.6733 84.506 68.34C85.106 67.9933 85.5727 67.5067 85.906 66.88C86.2527 66.2533 86.426 65.54 86.426 64.74C86.426 63.94 86.2527 63.2333 85.906 62.62C85.5727 61.9933 85.106 61.5067 84.506 61.16C83.906 60.8133 83.2393 60.64 82.506 60.64C81.7593 60.64 81.086 60.8133 80.486 61.16C79.8993 61.5067 79.4327 61.9933 79.086 62.62C78.7527 63.2333 78.586 63.94 78.586 64.74C78.586 65.54 78.7527 66.2533 79.086 66.88C79.4327 67.5067 79.8993 67.9933 80.486 68.34C81.086 68.6733 81.7593 68.84 82.506 68.84ZM100.097 65.18H91.297C91.377 66.2733 91.797 67.16 92.557 67.84C93.317 68.5067 94.277 68.84 95.437 68.84C96.0903 68.84 96.6903 68.7267 97.237 68.5C97.7836 68.26 98.257 67.9133 98.657 67.46L99.457 68.38C98.9903 68.94 98.4036 69.3667 97.697 69.66C97.0036 69.9533 96.237 70.1 95.397 70.1C94.317 70.1 93.357 69.8733 92.517 69.42C91.6903 68.9533 91.0436 68.3133 90.577 67.5C90.1103 66.6867 89.877 65.7667 89.877 64.74C89.877 63.7133 90.097 62.7933 90.537 61.98C90.9903 61.1667 91.6036 60.5333 92.377 60.08C93.1636 59.6267 94.0436 59.4 95.017 59.4C95.9903 59.4 96.8636 59.6267 97.637 60.08C98.4103 60.5333 99.017 61.1667 99.457 61.98C99.897 62.78 100.117 63.7 100.117 64.74L100.097 65.18ZM95.017 60.62C94.0036 60.62 93.1503 60.9467 92.457 61.6C91.777 62.24 91.3903 63.08 91.297 64.12H98.757C98.6636 63.08 98.2703 62.24 97.577 61.6C96.897 60.9467 96.0436 60.62 95.017 60.62ZM110.191 60.74H106.211V70H104.791V60.74H100.811V59.48H110.191V60.74ZM116.765 63.2C118.085 63.2133 119.085 63.5067 119.765 64.08C120.458 64.6533 120.805 65.48 120.805 66.56C120.805 67.68 120.431 68.54 119.685 69.14C118.951 69.74 117.885 70.0333 116.485 70.02L112.245 70V59.48H113.665V63.16L116.765 63.2ZM116.405 68.94C117.378 68.9533 118.111 68.76 118.605 68.36C119.111 67.9467 119.365 67.3467 119.365 66.56C119.365 65.7867 119.118 65.2133 118.625 64.84C118.131 64.4667 117.391 64.2733 116.405 64.26L113.665 64.22V68.9L116.405 68.94ZM41.7782 83.74C42.7515 83.74 43.6182 83.96 44.3782 84.4C45.1515 84.8267 45.7515 85.4333 46.1782 86.22C46.6049 86.9933 46.8182 87.88 46.8182 88.88C46.8182 89.9067 46.5915 90.82 46.1382 91.62C45.6982 92.4067 45.0782 93.02 44.2782 93.46C43.4782 93.9 42.5582 94.12 41.5182 94.12C39.7715 94.12 38.4182 93.5067 37.4582 92.28C36.4982 91.0533 36.0182 89.36 36.0182 87.2C36.0182 84.9467 36.4449 83.22 37.2982 82.02C38.1649 80.82 39.5115 80.0067 41.3382 79.58L46.0582 78.5L46.2982 79.8L41.8582 80.82C40.3515 81.1533 39.2449 81.7467 38.5382 82.6C37.8315 83.44 37.4449 84.6867 37.3782 86.34C37.8049 85.5267 38.3982 84.8933 39.1582 84.44C39.9182 83.9733 40.7915 83.74 41.7782 83.74ZM41.5582 92.94C42.2915 92.94 42.9449 92.7733 43.5182 92.44C44.1049 92.0933 44.5582 91.6133 44.8782 91C45.2115 90.3867 45.3782 89.6933 45.3782 88.92C45.3782 88.1467 45.2182 87.4667 44.8982 86.88C44.5782 86.2933 44.1249 85.84 43.5382 85.52C42.9649 85.1867 42.3049 85.02 41.5582 85.02C40.8115 85.02 40.1449 85.1867 39.5582 85.52C38.9849 85.84 38.5315 86.2933 38.1982 86.88C37.8782 87.4667 37.7182 88.1467 37.7182 88.92C37.7182 89.6933 37.8782 90.3867 38.1982 91C38.5315 91.6133 38.9915 92.0933 39.5782 92.44C40.1649 92.7733 40.8249 92.94 41.5582 92.94ZM54.2018 94.1C53.1885 94.1 52.2751 93.8733 51.4618 93.42C50.6485 92.9533 50.0085 92.3133 49.5418 91.5C49.0751 90.6867 48.8418 89.7667 48.8418 88.74C48.8418 87.7133 49.0751 86.7933 49.5418 85.98C50.0085 85.1667 50.6485 84.5333 51.4618 84.08C52.2751 83.6267 53.1885 83.4 54.2018 83.4C55.2151 83.4 56.1285 83.6267 56.9418 84.08C57.7551 84.5333 58.3885 85.1667 58.8418 85.98C59.3085 86.7933 59.5418 87.7133 59.5418 88.74C59.5418 89.7667 59.3085 90.6867 58.8418 91.5C58.3885 92.3133 57.7551 92.9533 56.9418 93.42C56.1285 93.8733 55.2151 94.1 54.2018 94.1ZM54.2018 92.84C54.9485 92.84 55.6151 92.6733 56.2018 92.34C56.8018 91.9933 57.2685 91.5067 57.6018 90.88C57.9351 90.2533 58.1018 89.54 58.1018 88.74C58.1018 87.94 57.9351 87.2267 57.6018 86.6C57.2685 85.9733 56.8018 85.4933 56.2018 85.16C55.6151 84.8133 54.9485 84.64 54.2018 84.64C53.4551 84.64 52.7818 84.8133 52.1818 85.16C51.5951 85.4933 51.1285 85.9733 50.7818 86.6C50.4485 87.2267 50.2818 87.94 50.2818 88.74C50.2818 89.54 50.4485 90.2533 50.7818 90.88C51.1285 91.5067 51.5951 91.9933 52.1818 92.34C52.7818 92.6733 53.4551 92.84 54.2018 92.84ZM71.118 83.48V94H69.698V84.74H64.658L64.518 87.34C64.4114 89.5267 64.158 91.2067 63.758 92.38C63.358 93.5533 62.6447 94.14 61.618 94.14C61.338 94.14 60.998 94.0867 60.598 93.98L60.698 92.76C60.938 92.8133 61.1047 92.84 61.198 92.84C61.7447 92.84 62.158 92.5867 62.438 92.08C62.718 91.5733 62.9047 90.9467 62.998 90.2C63.0914 89.4533 63.1714 88.4667 63.238 87.24L63.418 83.48H71.118ZM79.6748 87.2C80.9948 87.2133 81.9948 87.5067 82.6748 88.08C83.3681 88.6533 83.7148 89.48 83.7148 90.56C83.7148 91.68 83.3414 92.54 82.5948 93.14C81.8614 93.74 80.7948 94.0333 79.3948 94.02L75.1548 94V83.48H76.5748V87.16L79.6748 87.2ZM79.3148 92.94C80.2881 92.9533 81.0214 92.76 81.5148 92.36C82.0214 91.9467 82.2748 91.3467 82.2748 90.56C82.2748 89.7867 82.0281 89.2133 81.5348 88.84C81.0414 88.4667 80.3014 88.2733 79.3148 88.26L76.5748 88.22V92.9L79.3148 92.94ZM100.944 83.48V94H86.4243V83.48H87.8443V92.76H93.0043V83.48H94.4243V92.76H99.5243V83.48H100.944ZM114.199 89.18H105.399C105.479 90.2733 105.899 91.16 106.659 91.84C107.419 92.5067 108.379 92.84 109.539 92.84C110.192 92.84 110.792 92.7267 111.339 92.5C111.885 92.26 112.359 91.9133 112.759 91.46L113.559 92.38C113.092 92.94 112.505 93.3667 111.799 93.66C111.105 93.9533 110.339 94.1 109.499 94.1C108.419 94.1 107.459 93.8733 106.619 93.42C105.792 92.9533 105.145 92.3133 104.679 91.5C104.212 90.6867 103.979 89.7667 103.979 88.74C103.979 87.7133 104.199 86.7933 104.639 85.98C105.092 85.1667 105.705 84.5333 106.479 84.08C107.265 83.6267 108.145 83.4 109.119 83.4C110.092 83.4 110.965 83.6267 111.739 84.08C112.512 84.5333 113.119 85.1667 113.559 85.98C113.999 86.78 114.219 87.7 114.219 88.74L114.199 89.18ZM109.119 84.62C108.105 84.62 107.252 84.9467 106.559 85.6C105.879 86.24 105.492 87.08 105.399 88.12H112.859C112.765 87.08 112.372 86.24 111.679 85.6C110.999 84.9467 110.145 84.62 109.119 84.62Z" fill="black"/>
</g>
<defs>
<clipPath id="clip0">
<rect width="162" height="150" fill="white"/>
</clipPath>
</defs>
</svg>
