<svg width="150" height="150" viewBox="0 0 150 150" fill="none" xmlns="http://www.w3.org/2000/svg">
<path d="M145.378 97.8673C142.375 107.109 137.581 115.67 131.27 123.059C124.959 130.449 117.254 136.523 108.595 140.934C99.9367 145.346 90.4938 148.009 80.806 148.772C71.1181 149.534 61.3749 148.381 52.1327 145.378C42.8905 142.375 34.3303 137.581 26.9408 131.27C19.5514 124.959 13.4773 117.254 9.06551 108.595C4.65372 99.9366 1.99057 90.4938 1.22812 80.806C0.465667 71.1181 1.61885 61.3749 4.62182 52.1327C7.62479 42.8905 12.4187 34.3303 18.73 26.9408C25.0412 19.5513 32.7461 13.4773 41.4047 9.06551C50.0634 4.65371 59.5062 1.99057 69.194 1.22812C78.8819 0.465667 88.6251 1.61885 97.8673 4.62182C107.109 7.6248 115.67 12.4188 123.059 18.73C130.449 25.0412 136.523 32.7461 140.934 41.4047C145.346 50.0634 148.009 59.5062 148.772 69.194C149.534 78.8819 148.381 88.6251 145.378 97.8673L145.378 97.8673Z" stroke="black" stroke-width="2"/>
<path d="M28.5 82.12C27.1133 82.12 25.8533 81.8133 24.72 81.2C23.6 80.5733 22.72 79.72 22.08 78.64C21.4533 77.56 21.14 76.3467 21.14 75C21.14 73.6533 21.4533 72.44 22.08 71.36C22.72 70.28 23.6 69.4333 24.72 68.82C25.8533 68.1933 27.1133 67.88 28.5 67.88C29.8867 67.88 31.1333 68.1867 32.24 68.8C33.36 69.4133 34.24 70.2667 34.88 71.36C35.52 72.44 35.84 73.6533 35.84 75C35.84 76.3467 35.52 77.5667 34.88 78.66C34.24 79.74 33.36 80.5867 32.24 81.2C31.1333 81.8133 29.8867 82.12 28.5 82.12ZM28.5 80.8C29.6067 80.8 30.6067 80.5533 31.5 80.06C32.3933 79.5533 33.0933 78.86 33.6 77.98C34.1067 77.0867 34.36 76.0933 34.36 75C34.36 73.9067 34.1067 72.92 33.6 72.04C33.0933 71.1467 32.3933 70.4533 31.5 69.96C30.6067 69.4533 29.6067 69.2 28.5 69.2C27.3933 69.2 26.3867 69.4533 25.48 69.96C24.5867 70.4533 23.88 71.1467 23.36 72.04C22.8533 72.92 22.6 73.9067 22.6 75C22.6 76.0933 22.8533 77.0867 23.36 77.98C23.88 78.86 24.5867 79.5533 25.48 80.06C26.3867 80.5533 27.3933 80.8 28.5 80.8ZM46.1388 72.74H42.1588V82H40.7388V72.74H36.7588V71.48H46.1388V72.74ZM57.6319 71.48V82H56.2119V72.74H49.6119V82H48.1919V71.48H57.6319ZM67.0884 71.4C68.0751 71.4 68.9684 71.6267 69.7684 72.08C70.5684 72.52 71.1951 73.1467 71.6484 73.96C72.1018 74.7733 72.3284 75.7 72.3284 76.74C72.3284 77.7933 72.1018 78.7267 71.6484 79.54C71.1951 80.3533 70.5684 80.9867 69.7684 81.44C68.9818 81.88 68.0884 82.1 67.0884 82.1C66.2351 82.1 65.4618 81.9267 64.7684 81.58C64.0884 81.22 63.5284 80.7 63.0884 80.02V85.88H61.6684V71.48H63.0284V73.56C63.4551 72.8667 64.0151 72.3333 64.7084 71.96C65.4151 71.5867 66.2084 71.4 67.0884 71.4ZM66.9884 80.84C67.7218 80.84 68.3884 80.6733 68.9884 80.34C69.5884 79.9933 70.0551 79.5067 70.3884 78.88C70.7351 78.2533 70.9084 77.54 70.9084 76.74C70.9084 75.94 70.7351 75.2333 70.3884 74.62C70.0551 73.9933 69.5884 73.5067 68.9884 73.16C68.3884 72.8133 67.7218 72.64 66.9884 72.64C66.2418 72.64 65.5684 72.8133 64.9684 73.16C64.3818 73.5067 63.9151 73.9933 63.5684 74.62C63.2351 75.2333 63.0684 75.94 63.0684 76.74C63.0684 77.54 63.2351 78.2533 63.5684 78.88C63.9151 79.5067 64.3818 79.9933 64.9684 80.34C65.5684 80.6733 66.2418 80.84 66.9884 80.84ZM78.9408 71.4C80.3141 71.4 81.3674 71.7467 82.1008 72.44C82.8341 73.12 83.2008 74.1333 83.2008 75.48V82H81.8408V80.36C81.5208 80.9067 81.0474 81.3333 80.4208 81.64C79.8074 81.9467 79.0741 82.1 78.2208 82.1C77.0474 82.1 76.1141 81.82 75.4208 81.26C74.7274 80.7 74.3808 79.96 74.3808 79.04C74.3808 78.1467 74.7008 77.4267 75.3408 76.88C75.9941 76.3333 77.0274 76.06 78.4408 76.06H81.7808V75.42C81.7808 74.5133 81.5274 73.8267 81.0208 73.36C80.5141 72.88 79.7741 72.64 78.8008 72.64C78.1341 72.64 77.4941 72.7533 76.8808 72.98C76.2674 73.1933 75.7408 73.4933 75.3008 73.88L74.6608 72.82C75.1941 72.3667 75.8341 72.02 76.5808 71.78C77.3274 71.5267 78.1141 71.4 78.9408 71.4ZM78.4408 80.98C79.2408 80.98 79.9274 80.8 80.5008 80.44C81.0741 80.0667 81.5008 79.5333 81.7808 78.84V77.12H78.4808C76.6808 77.12 75.7808 77.7467 75.7808 79C75.7808 79.6133 76.0141 80.1 76.4808 80.46C76.9474 80.8067 77.6008 80.98 78.4408 80.98ZM93.6809 76.56C95.1076 76.8933 95.8209 77.7533 95.8209 79.14C95.8209 80.06 95.4809 80.7667 94.8009 81.26C94.1209 81.7533 93.1076 82 91.7609 82H86.9809V71.48H91.6209C92.8209 71.48 93.7609 71.7133 94.4409 72.18C95.1209 72.6467 95.4609 73.3133 95.4609 74.18C95.4609 74.7533 95.3009 75.2467 94.9809 75.66C94.6743 76.06 94.2409 76.36 93.6809 76.56ZM88.3609 76.16H91.5209C92.3343 76.16 92.9543 76.0067 93.3809 75.7C93.8209 75.3933 94.0409 74.9467 94.0409 74.36C94.0409 73.7733 93.8209 73.3333 93.3809 73.04C92.9543 72.7467 92.3343 72.6 91.5209 72.6H88.3609V76.16ZM91.7009 80.88C92.6076 80.88 93.2876 80.7333 93.7409 80.44C94.1943 80.1467 94.4209 79.6867 94.4209 79.06C94.4209 78.4333 94.2143 77.9733 93.8009 77.68C93.3876 77.3733 92.7343 77.22 91.8409 77.22H88.3609V80.88H91.7009ZM99.1489 71.48H100.569V79.84L107.589 71.48H108.849V82H107.429V73.64L100.429 82H99.1489V71.48ZM120.318 72.74H116.338V82H114.918V72.74H110.938V71.48H120.318V72.74ZM126.892 75.2C128.212 75.2133 129.212 75.5067 129.892 76.08C130.585 76.6533 130.932 77.48 130.932 78.56C130.932 79.68 130.558 80.54 129.812 81.14C129.078 81.74 128.012 82.0333 126.612 82.02L122.372 82V71.48H123.792V75.16L126.892 75.2ZM126.532 80.94C127.505 80.9533 128.238 80.76 128.732 80.36C129.238 79.9467 129.492 79.3467 129.492 78.56C129.492 77.7867 129.245 77.2133 128.752 76.84C128.258 76.4667 127.518 76.2733 126.532 76.26L123.792 76.22V80.9L126.532 80.94Z" fill="black"/>
</svg>
