<svg width="80" height="80" viewBox="0 0 80 80" fill="none" xmlns="http://www.w3.org/2000/svg">
<g clip-path="url(#clip0)">
<path d="M13.6465 25.7356C12.9993 25.7356 12.4746 26.2603 12.4746 26.9075V41.4515C12.4746 42.0987 12.9993 42.6234 13.6465 42.6234H30.9755C31.6227 42.6234 32.1474 42.0987 32.1474 41.4515V26.9075C32.1474 26.2603 31.6227 25.7356 30.9755 25.7356H13.6465ZM27.7565 28.0793L14.8184 38.9381V28.0793H27.7565ZM16.8657 40.2796L29.8037 29.4211V40.2796H16.8657Z" fill="black"/>
<path d="M55.0466 8.34058C55.0466 7.69339 54.5221 7.1687 53.8748 7.1687H27.8124C27.1652 7.1687 26.6405 7.69339 26.6405 8.34058C26.6405 8.98776 27.1652 9.51245 27.8124 9.51245H39.8607V20.9392H14.8184V9.51245H22.3437C22.9909 9.51245 23.5155 8.98776 23.5155 8.34058C23.5155 7.69339 22.9909 7.1687 22.3437 7.1687H13.6465C12.9993 7.1687 12.4746 7.69339 12.4746 8.34058V22.111C12.4746 22.7582 12.9993 23.2829 13.6465 23.2829H53.8746C54.5219 23.2829 55.0465 22.7582 55.0465 22.111V8.34058H55.0466ZM52.7029 20.9392H42.2046V9.51245H52.7029V20.9392Z" fill="black"/>
<path d="M31.904 61.5284H13.6465C12.9993 61.5284 12.4746 62.0531 12.4746 62.7003C12.4746 63.3475 12.9993 63.8722 13.6465 63.8722H31.9038C32.551 63.8722 33.0757 63.3475 33.0757 62.7003C33.0757 62.0531 32.5512 61.5284 31.904 61.5284Z" fill="black"/>
<path d="M31.904 56.6803H13.6465C12.9993 56.6803 12.4746 57.205 12.4746 57.8522C12.4746 58.4994 12.9993 59.024 13.6465 59.024H31.9038C32.551 59.024 33.0757 58.4994 33.0757 57.8522C33.0757 57.205 32.5512 56.6803 31.904 56.6803Z" fill="black"/>
<path d="M53.8747 40.2797H35.6172C34.97 40.2797 34.4453 40.8044 34.4453 41.4515C34.4453 42.0987 34.97 42.6234 35.6172 42.6234H53.8747C54.522 42.6234 55.0466 42.0987 55.0466 41.4515C55.0466 40.8044 54.5219 40.2797 53.8747 40.2797Z" fill="black"/>
<path d="M53.8747 35.4318H35.6172C34.97 35.4318 34.4453 35.9565 34.4453 36.6036C34.4453 37.2508 34.97 37.7755 35.6172 37.7755H53.8747C54.522 37.7755 55.0466 37.2508 55.0466 36.6036C55.0466 35.9565 54.5219 35.4318 53.8747 35.4318Z" fill="black"/>
<path d="M53.8747 30.5836H35.6172C34.97 30.5836 34.4453 31.1083 34.4453 31.7555C34.4453 32.4027 34.97 32.9274 35.6172 32.9274H53.8747C54.522 32.9274 55.0466 32.4027 55.0466 31.7555C55.0466 31.1083 54.5219 30.5836 53.8747 30.5836Z" fill="black"/>
<path d="M53.8747 25.7356H35.6172C34.97 25.7356 34.4453 26.2603 34.4453 26.9075C34.4453 27.5547 34.97 28.0793 35.6172 28.0793H53.8747C54.522 28.0793 55.0466 27.5547 55.0466 26.9075C55.0466 26.2603 54.5219 25.7356 53.8747 25.7356Z" fill="black"/>
<path d="M72.9767 63.0469C73.624 63.0469 74.1485 62.5222 74.1485 61.875V55.233H74.7082C75.3556 55.233 75.8801 54.7083 75.8801 54.0611V49.7188C75.8801 49.0716 75.3556 48.5469 74.7082 48.5469H70.3659C69.7185 48.5469 69.194 49.0716 69.194 49.7188V50.155H63.4017V31.25C63.4017 30.6028 62.8771 30.0781 62.2298 30.0781C61.5824 30.0781 61.0579 30.6028 61.0579 31.25V50.1552H55.0465V46.0933C55.0465 45.4461 54.522 44.9214 53.8746 44.9214H13.6463C12.9992 44.9214 12.4745 45.4461 12.4745 46.0933V52.4369C12.4745 53.0841 12.9992 53.6087 13.6463 53.6087H41.2104V54.0611C41.2104 54.7083 41.7349 55.233 42.3823 55.233H42.8214V56.6805H35.6173C34.9701 56.6805 34.4454 57.2052 34.4454 57.8523C34.4454 58.4995 34.9701 59.0242 35.6173 59.0242H42.8214V61.5284H35.6173C34.9701 61.5284 34.4454 62.0531 34.4454 62.7003C34.4454 63.3475 34.9701 63.8722 35.6173 63.8722H42.8214V68.6972H6.46322V2.34375H61.0578V25.7812C61.0578 26.4284 61.5823 26.9531 62.2296 26.9531C62.877 26.9531 63.4015 26.4284 63.4015 25.7812V1.86297C63.4015 0.835781 62.5659 0 61.5385 0H5.9826C4.95525 0 4.11963 0.835781 4.11963 1.86297V69.178C4.11963 70.2052 4.95541 71.0409 5.9826 71.0409H42.8214V73.3139H42.3823C41.7349 73.3139 41.2104 73.8386 41.2104 74.4858V78.8281C41.2104 79.4753 41.7349 80 42.3823 80H46.7246C47.372 80 47.8965 79.4753 47.8965 78.8281V78.3006H69.194V78.8281C69.194 79.4753 69.7185 80 70.3659 80H74.7082C75.3556 80 75.8801 79.4753 75.8801 78.8281V74.4858C75.8801 73.8386 75.3556 73.3139 74.7082 73.3139H74.1485V67.3438C74.1485 66.6966 73.624 66.1719 72.9767 66.1719C72.3293 66.1719 71.8048 66.6966 71.8048 67.3438V73.3139H70.3659C69.7185 73.3139 69.194 73.8386 69.194 74.4858V75.9569H47.8965V74.4858C47.8965 73.8386 47.372 73.3139 46.7246 73.3139H45.1651V55.233H46.7246C47.372 55.233 47.8965 54.7083 47.8965 54.0611V52.4989H69.194V54.0611C69.194 54.7083 69.7185 55.233 70.3659 55.233H71.8048V61.875C71.8048 62.5222 72.3293 63.0469 72.9767 63.0469ZM71.5378 75.6577H73.5363V77.6562H71.5378V75.6577ZM45.5528 77.6562H43.5542V75.6577H45.5528V77.6562ZM14.8182 51.265V47.2652H52.7026V50.1552H47.8963V49.7188C47.8963 49.0716 47.3718 48.5469 46.7245 48.5469H42.3821C41.7348 48.5469 41.2103 49.0716 41.2103 49.7188V51.265H14.8182ZM45.5528 52.8892H43.5542V50.8906H45.5528V52.8892ZM71.5378 50.8906H73.5363V52.8892H71.5378V50.8906Z" fill="black"/>
<path d="M49.8203 55.7841C49.173 55.7841 48.6484 56.3087 48.6484 56.9559V71.5C48.6484 72.1472 49.173 72.6719 49.8203 72.6719H67.1492C67.7966 72.6719 68.3211 72.1472 68.3211 71.5V56.9559C68.3211 56.3087 67.7966 55.7841 67.1492 55.7841H49.8203ZM50.9922 58.1278H63.9302L50.9922 68.9866V58.1278ZM65.9773 70.328H53.0394L65.9773 59.4692V70.328Z" fill="#2F44FF"/>
</g>
<defs>
<clipPath id="clip0">
<rect width="80" height="80" fill="white"/>
</clipPath>
</defs>
</svg>
