<svg width="40" height="40" viewBox="0 0 40 40" fill="none" xmlns="http://www.w3.org/2000/svg">
<path fill-rule="evenodd" clip-rule="evenodd" d="M40 20C40 31.0457 31.0457 40 20 40C8.95431 40 0 31.0457 0 20C0 8.95431 8.95431 0 20 0C31.0457 0 40 8.95431 40 20ZM20.814 28.7716H19.2443C19.2443 28.7716 15.7807 28.9802 12.7307 25.8047C9.40434 22.3411 6.46662 15.4681 6.46662 15.4681C6.46662 15.4681 6.29728 15.0175 6.48124 14.7997C6.68802 14.5547 7.25132 14.539 7.25132 14.539L11.0037 14.5144C11.0037 14.5144 11.3573 14.5736 11.6105 14.7594C11.819 14.9127 11.936 15.1993 11.936 15.1993C11.936 15.1993 12.5424 16.7331 13.3457 18.1206C14.9133 20.8295 15.6434 21.422 16.1757 21.1318C16.9511 20.7086 16.7187 17.3024 16.7187 17.3024C16.7187 17.3024 16.7329 16.066 16.3283 15.5155C16.0149 15.0888 15.4238 14.9644 15.1628 14.9294C14.9518 14.9013 15.2983 14.411 15.7475 14.1911C16.4228 13.8602 17.6153 13.8413 19.0243 13.8559C20.122 13.867 20.4379 13.9354 20.8671 14.0392C21.863 14.2797 21.832 15.0502 21.765 16.7126C21.7449 17.2094 21.7217 17.7858 21.7217 18.4515C21.7217 18.6012 21.7174 18.7609 21.7129 18.9251C21.6896 19.7766 21.663 20.7514 22.2233 21.1136C22.5107 21.299 23.2137 21.1414 24.9721 18.1556C25.8056 16.7405 26.4306 15.0767 26.4306 15.0767C26.4306 15.0767 26.5672 14.78 26.7793 14.6528C26.9964 14.523 27.2891 14.5629 27.2891 14.5629L31.2379 14.5383C31.2379 14.5383 32.4244 14.3968 32.6166 14.9323C32.818 15.4945 32.1731 16.8072 30.5598 18.9574C29.0278 20.9994 28.2833 21.7499 28.3533 22.4147C28.4043 22.8993 28.8882 23.3383 29.8154 24.1989C31.7591 26.0031 32.2772 26.9505 32.4003 27.1756C32.4103 27.1938 32.4176 27.2073 32.423 27.2161C33.2929 28.6586 31.4582 28.7716 31.4582 28.7716L27.9512 28.8205C27.9512 28.8205 27.1975 28.9699 26.2056 28.2885C25.687 27.9325 25.1798 27.3512 24.6967 26.7973C23.9581 25.9505 23.2754 25.1679 22.6929 25.3526C21.7153 25.6628 21.746 27.7691 21.746 27.7691C21.746 27.7691 21.7531 28.219 21.5303 28.4586C21.2882 28.7196 20.814 28.7716 20.814 28.7716Z" fill="black"/>
</svg>
