<svg width="40" height="40" viewBox="0 0 40 40" fill="none" xmlns="http://www.w3.org/2000/svg">
<path d="M20 0C8.95599 0 0 8.95599 0 20C0 31.044 8.95599 40 20 40C31.044 40 40 31.044 40 20C40 8.95599 31.044 0 20 0ZM20.4239 31.6446C20.4236 31.6446 20.4242 31.6446 20.4239 31.6446H20.419C18.4155 31.6437 16.4468 31.1414 14.6985 30.188L8.35297 31.8521L10.0513 25.6509C9.0036 23.8364 8.45245 21.7776 8.45337 19.6686C8.45612 13.0707 13.826 7.70294 20.4239 7.70294C23.6258 7.70416 26.6315 8.9505 28.8913 11.2122C31.1514 13.4741 32.3953 16.4807 32.3941 19.678C32.3914 26.2762 27.0209 31.6446 20.4239 31.6446Z" fill="black"/>
<path d="M20.4273 9.72461C14.9393 9.72461 10.4761 14.186 10.4736 19.67C10.473 21.5493 10.9991 23.3794 11.9949 24.963L12.2314 25.3392L11.2262 29.0096L14.9918 28.022L15.3552 28.2375C16.8826 29.1439 18.6337 29.6233 20.419 29.6239H20.423C25.9067 29.6239 30.3699 25.1622 30.3723 19.6779C30.3733 17.0201 29.3393 14.5214 27.461 12.6415C25.5826 10.7616 23.0844 9.72552 20.4273 9.72461ZM26.2793 23.9461C26.03 24.6444 24.8352 25.2819 24.2606 25.3679C23.7451 25.4448 23.0933 25.4769 22.3767 25.2495C21.9422 25.1116 21.3852 24.9276 20.6714 24.6196C17.6712 23.3245 15.7117 20.3044 15.5621 20.1049C15.4126 19.9053 14.3408 18.4835 14.3408 17.0116C14.3408 15.54 15.1135 14.8165 15.3876 14.5174C15.6619 14.218 15.986 14.1433 16.1853 14.1433C16.3846 14.1433 16.5842 14.1451 16.7584 14.1536C16.9421 14.1628 17.1887 14.0837 17.4313 14.6669C17.6807 15.2657 18.2788 16.7372 18.3536 16.8868C18.4284 17.0366 18.4781 17.2112 18.3786 17.4108C18.2788 17.6104 17.9474 18.041 17.6309 18.4334C17.4982 18.5979 17.3251 18.7444 17.4997 19.0438C17.674 19.3428 18.2745 20.3221 19.1635 21.115C20.3061 22.1337 21.2699 22.4492 21.5689 22.5991C21.8677 22.7486 22.0423 22.7236 22.2168 22.5243C22.3911 22.3247 22.9645 21.6512 23.1638 21.3518C23.3631 21.0524 23.5626 21.1025 23.8367 21.2023C24.111 21.3018 25.5814 22.0253 25.8805 22.1749C26.1795 22.3247 26.3788 22.3995 26.4536 22.5243C26.5287 22.6491 26.5287 23.2476 26.2793 23.9461Z" fill="black"/>
</svg>
