<svg width="150" height="150" viewBox="0 0 150 150" fill="none" xmlns="http://www.w3.org/2000/svg">
<path d="M145.378 97.8673C142.375 107.109 137.581 115.67 131.27 123.059C124.959 130.449 117.254 136.523 108.595 140.934C99.9367 145.346 90.4938 148.009 80.806 148.772C71.1181 149.534 61.3749 148.381 52.1327 145.378C42.8905 142.375 34.3303 137.581 26.9408 131.27C19.5514 124.959 13.4773 117.254 9.06551 108.595C4.65372 99.9366 1.99057 90.4938 1.22812 80.806C0.465667 71.1181 1.61885 61.3749 4.62182 52.1327C7.62479 42.8905 12.4187 34.3303 18.73 26.9408C25.0412 19.5513 32.7461 13.4773 41.4047 9.06551C50.0634 4.65371 59.5062 1.99057 69.194 1.22812C78.8819 0.465667 88.6251 1.61885 97.8673 4.62182C107.109 7.6248 115.67 12.4188 123.059 18.73C130.449 25.0412 136.523 32.7461 140.934 41.4047C145.346 50.0634 148.009 59.5062 148.772 69.194C149.534 78.8819 148.381 88.6251 145.378 97.8673L145.378 97.8673Z" stroke="black" stroke-width="2"/>
<path d="M39.06 68V82H37.6V75.54H28.84V82H27.36V68H28.84V74.24H37.6V68H39.06ZM47.0658 71.4C48.4391 71.4 49.4924 71.7467 50.2258 72.44C50.9591 73.12 51.3258 74.1333 51.3258 75.48V82H49.9658V80.36C49.6458 80.9067 49.1724 81.3333 48.5458 81.64C47.9324 81.9467 47.1991 82.1 46.3458 82.1C45.1724 82.1 44.2391 81.82 43.5458 81.26C42.8524 80.7 42.5058 79.96 42.5058 79.04C42.5058 78.1467 42.8258 77.4267 43.4658 76.88C44.1191 76.3333 45.1524 76.06 46.5658 76.06H49.9058V75.42C49.9058 74.5133 49.6524 73.8267 49.1458 73.36C48.6391 72.88 47.8991 72.64 46.9258 72.64C46.2591 72.64 45.6191 72.7533 45.0058 72.98C44.3924 73.1933 43.8658 73.4933 43.4258 73.88L42.7858 72.82C43.3191 72.3667 43.9591 72.02 44.7058 71.78C45.4524 71.5267 46.2391 71.4 47.0658 71.4ZM46.5658 80.98C47.3658 80.98 48.0524 80.8 48.6258 80.44C49.1991 80.0667 49.6258 79.5333 49.9058 78.84V77.12H46.6058C44.8058 77.12 43.9058 77.7467 43.9058 79C43.9058 79.6133 44.1391 80.1 44.6058 80.46C45.0724 80.8067 45.7258 80.98 46.5658 80.98ZM64.5459 71.48V82H63.1259V72.74H56.5259V82H55.1059V71.48H64.5459ZM68.5825 71.48H70.0025V79.84L77.0225 71.48H78.2825V82H76.8625V73.64L69.8625 82H68.5825V71.48ZM86.752 82.1C85.712 82.1 84.7787 81.8733 83.952 81.42C83.1387 80.9667 82.4987 80.3333 82.032 79.52C81.5654 78.6933 81.332 77.7667 81.332 76.74C81.332 75.7133 81.5654 74.7933 82.032 73.98C82.4987 73.1667 83.1387 72.5333 83.952 72.08C84.7787 71.6267 85.712 71.4 86.752 71.4C87.6587 71.4 88.4654 71.58 89.172 71.94C89.892 72.2867 90.4587 72.8 90.872 73.48L89.812 74.2C89.4654 73.68 89.0254 73.2933 88.492 73.04C87.9587 72.7733 87.3787 72.64 86.752 72.64C85.992 72.64 85.3054 72.8133 84.692 73.16C84.092 73.4933 83.6187 73.9733 83.272 74.6C82.9387 75.2267 82.772 75.94 82.772 76.74C82.772 77.5533 82.9387 78.2733 83.272 78.9C83.6187 79.5133 84.092 79.9933 84.692 80.34C85.3054 80.6733 85.992 80.84 86.752 80.84C87.3787 80.84 87.9587 80.7133 88.492 80.46C89.0254 80.2067 89.4654 79.82 89.812 79.3L90.872 80.02C90.4587 80.7 89.892 81.22 89.172 81.58C88.452 81.9267 87.6454 82.1 86.752 82.1ZM97.2416 71.4C98.6149 71.4 99.6682 71.7467 100.402 72.44C101.135 73.12 101.502 74.1333 101.502 75.48V82H100.142V80.36C99.8216 80.9067 99.3482 81.3333 98.7216 81.64C98.1082 81.9467 97.3749 82.1 96.5216 82.1C95.3482 82.1 94.4149 81.82 93.7216 81.26C93.0282 80.7 92.6816 79.96 92.6816 79.04C92.6816 78.1467 93.0016 77.4267 93.6416 76.88C94.2949 76.3333 95.3282 76.06 96.7416 76.06H100.082V75.42C100.082 74.5133 99.8282 73.8267 99.3216 73.36C98.8149 72.88 98.0749 72.64 97.1016 72.64C96.4349 72.64 95.7949 72.7533 95.1816 72.98C94.5682 73.1933 94.0416 73.4933 93.6016 73.88L92.9616 72.82C93.4949 72.3667 94.1349 72.02 94.8816 71.78C95.6282 71.5267 96.4149 71.4 97.2416 71.4ZM96.7416 80.98C97.5416 80.98 98.2282 80.8 98.8016 80.44C99.3749 80.0667 99.8016 79.5333 100.082 78.84V77.12H96.7816C94.9816 77.12 94.0816 77.7467 94.0816 79C94.0816 79.6133 94.3149 80.1 94.7816 80.46C95.2482 80.8067 95.9016 80.98 96.7416 80.98ZM112.682 72.74H108.702V82H107.282V72.74H103.302V71.48H112.682V72.74ZM119.255 75.2C120.575 75.2133 121.575 75.5067 122.255 76.08C122.948 76.6533 123.295 77.48 123.295 78.56C123.295 79.68 122.922 80.54 122.175 81.14C121.442 81.74 120.375 82.0333 118.975 82.02L114.735 82V71.48H116.155V75.16L119.255 75.2ZM118.895 80.94C119.868 80.9533 120.602 80.76 121.095 80.36C121.602 79.9467 121.855 79.3467 121.855 78.56C121.855 77.7867 121.608 77.2133 121.115 76.84C120.622 76.4667 119.882 76.2733 118.895 76.26L116.155 76.22V80.9L118.895 80.94Z" fill="black"/>
</svg>
